<svg width="65" height="65" viewBox="0 0 65 65" fill="none" xmlns="http://www.w3.org/2000/svg">
<g clip-path="url(#clip0_124_2293)">
<path d="M62.707 37.2273L60.3325 33.5782C60.1236 33.2572 60.0124 32.8825 60.0124 32.4995C60.0124 32.1165 60.1236 31.7418 60.3325 31.4208L62.7082 27.7703C64.8708 24.4407 63.4073 19.9807 59.7166 18.5703L55.6519 17.013C55.2941 16.8759 54.9838 16.638 54.7585 16.3281C54.5332 16.0183 54.4026 15.6497 54.3825 15.2671L54.1588 10.92C53.9562 6.96736 50.1627 4.20614 46.3303 5.23167L42.1274 6.36218C41.3747 6.56454 40.5652 6.30416 40.075 5.6958L37.3376 2.30998C34.8463 -0.773055 30.1449 -0.767977 27.6612 2.31214L24.9238 5.69606C24.6832 5.99386 24.3613 6.21537 23.9972 6.33367C23.6331 6.45197 23.2425 6.46196 22.8728 6.36243L18.6699 5.23268C14.8479 4.20322 11.0431 6.96253 10.8401 10.9203L10.6164 15.2681C10.5967 15.6505 10.4663 16.0189 10.2413 16.3287C10.0162 16.6385 9.7061 16.8763 9.34854 17.0132L5.28378 18.5693C1.58857 19.9843 0.129765 24.4463 2.29354 27.7733L4.66628 31.4195C4.87508 31.7408 4.98633 32.1156 4.98658 32.4987C4.98682 32.8819 4.87606 33.2569 4.66768 33.5784L2.29354 37.2275C0.130781 40.547 1.58629 45.0171 5.28378 46.4301L9.34854 47.9867C9.7061 48.1239 10.0162 48.3618 10.2412 48.6717C10.4663 48.9816 10.5966 49.3501 10.6164 49.7325L10.8401 54.0804C11.0427 58.0324 14.8394 60.7953 18.6699 59.768L22.8728 58.6369C23.6242 58.4351 24.4307 58.6949 24.9252 59.3054L27.6613 62.6893C30.1477 65.7661 34.8416 65.774 37.3391 62.6907L40.0752 59.3054C40.316 59.0078 40.6378 58.7862 41.0018 58.6676C41.3658 58.549 41.7563 58.5383 42.1263 58.6369L46.3332 59.7694C50.1482 60.792 53.9558 58.0436 54.1588 54.0803L54.3825 49.7338C54.4024 49.351 54.533 48.9822 54.7583 48.6721C54.9836 48.3619 55.294 48.1238 55.6519 47.9866L59.7166 46.4314C63.4107 45.0169 64.8709 40.5544 62.707 37.2273ZM23.9196 21.0677C26.2594 21.0677 28.1625 22.971 28.1625 25.3106C28.1625 27.6503 26.2592 29.5535 23.9196 29.5535C21.5799 29.5535 19.6768 27.6502 19.6768 25.3106C19.6768 22.971 21.58 21.0677 23.9196 21.0677ZM39.477 45.111C37.1373 45.111 35.2341 43.2077 35.2341 40.8681C35.2341 38.5284 37.1374 36.6252 39.477 36.6252C41.8167 36.6252 43.7199 38.5285 43.7199 40.8681C43.72 43.2078 41.8167 45.111 39.477 45.111ZM43.0986 24.6891L23.2982 44.4894C22.4695 45.3181 21.1271 45.3181 20.2983 44.4894C19.4697 43.6608 19.4697 42.3181 20.2983 41.4895L40.0986 21.6893C40.9272 20.8606 42.2698 20.8606 43.0985 21.6893C43.9272 22.5179 43.9272 23.8604 43.0986 24.6891Z" fill="#1D1D1B"/>
</g>
<defs>
<clipPath id="clip0_124_2293">
<rect width="65" height="65" fill="white"/>
</clipPath>
</defs>
</svg>
