<svg width="86" height="86" viewBox="0 0 86 86" fill="none" xmlns="http://www.w3.org/2000/svg">
<path fill-rule="evenodd" clip-rule="evenodd" d="M57.4704 61.6001C57.3707 61.521 57.2876 61.423 57.2259 61.3116C57.1643 61.2003 57.1252 61.0779 57.1111 60.9514C57.0969 60.8249 57.1079 60.6969 57.1434 60.5747C57.1789 60.4525 57.2383 60.3385 57.318 60.2393C57.3978 60.1401 57.4964 60.0577 57.6081 59.9968C57.7199 59.9359 57.8425 59.8976 57.9691 59.8843C58.0957 59.871 58.2236 59.8829 58.3456 59.9192C58.4676 59.9556 58.5812 60.0157 58.6798 60.0961L60.7609 61.7788L64.2429 57.5591C64.4053 57.3617 64.6395 57.2368 64.8939 57.212C65.1483 57.1872 65.4022 57.2645 65.5996 57.4269C65.797 57.5893 65.9219 57.8234 65.9467 58.0779C65.9715 58.3323 65.8942 58.5861 65.7318 58.7836L61.6686 63.7074C61.5907 63.8108 61.4929 63.8974 61.3809 63.9623C61.2689 64.0272 61.1451 64.069 61.0166 64.0852C60.8882 64.1014 60.7579 64.0917 60.6333 64.0566C60.5087 64.0216 60.3924 63.9619 60.2913 63.8811L57.4694 61.6001H57.4704ZM67.0055 55.1758C65.9228 54.093 64.5433 53.3557 63.0415 53.057C61.5397 52.7582 59.983 52.9116 58.5683 53.4975C57.1537 54.0835 55.9445 55.0758 55.0938 56.349C54.2431 57.6222 53.7891 59.119 53.7891 60.6502C53.7891 62.1814 54.2431 63.6783 55.0938 64.9515C55.9445 66.2246 57.1537 67.2169 58.5683 67.8029C59.983 68.3889 61.5397 68.5422 63.0415 68.2435C64.5433 67.9448 65.9228 67.2074 67.0055 66.1247C68.4574 64.6727 69.273 62.7035 69.273 60.6502C69.273 58.5969 68.4574 56.6277 67.0055 55.1758Z" fill="#1D1D1B"/>
<path fill-rule="evenodd" clip-rule="evenodd" d="M61.5314 43.7756C63.1024 43.7756 64.2382 45.1315 65.1348 45.3418C65.3303 45.3794 65.53 45.3897 65.7283 45.3725V4.5934C65.7267 4.27191 65.5983 3.96403 65.371 3.73667C65.1437 3.50931 64.8358 3.38083 64.5143 3.37915H18.8156V10.7118C18.8139 11.5464 18.4815 12.3464 17.8914 12.9365C17.3012 13.5267 16.5013 13.859 15.6667 13.8607H9.90283V73.3015C9.90442 73.623 10.0328 73.9309 10.2602 74.1582C10.4875 74.3855 10.7954 74.5139 11.1169 74.5154H48.9613L50.2128 72.3202C48.2239 71.6595 47.8248 70.7877 47.6414 68.8097C47.5246 67.5516 47.4902 67.4883 46.5716 66.618C45.9467 66.0265 45.3175 65.4303 45.1034 64.5184C44.7543 63.0302 45.8067 61.6426 45.8067 60.6523C45.8067 59.6619 44.7543 58.2744 45.1034 56.7862C45.4533 55.2954 47.0234 54.5245 47.4084 53.7395C47.7969 52.9472 47.4302 51.2655 48.3672 50.0983C49.3012 48.9341 51.0159 48.9313 51.6972 48.385C52.3784 47.8388 52.7554 46.1626 54.1124 45.4971C55.4751 44.8288 57.0337 45.5538 57.928 45.3441C58.8222 45.1345 59.9604 43.778 61.5314 43.778V43.7756ZM36.458 43.0964C36.2946 43.2132 36.0987 43.276 35.8978 43.276C35.6968 43.276 35.501 43.2132 35.3375 43.0964L29.5547 39.7582L29.5537 39.7598L23.6931 36.3763C23.5466 36.2915 23.4251 36.1696 23.3406 36.023C23.2561 35.8764 23.2116 35.7102 23.2117 35.541H23.2093V22.0062C23.2093 21.8246 23.2604 21.6466 23.3568 21.4926C23.4532 21.3387 23.591 21.2149 23.7544 21.1356L29.5537 17.7878L35.4178 14.4043C35.566 14.319 35.7343 14.2748 35.9053 14.2761C36.0762 14.2775 36.2438 14.3243 36.3907 14.4118L42.241 17.7895V17.7878L48.0917 21.1657C48.2409 21.2496 48.3651 21.3717 48.4514 21.5195C48.5378 21.6673 48.5833 21.8354 48.5832 22.0065H48.5854V35.5406C48.5854 35.7223 48.5343 35.9003 48.4379 36.0542C48.3415 36.2082 48.2037 36.3319 48.0403 36.4112L42.241 39.7595L36.4572 43.0967L36.458 43.0964ZM16.8473 49.7266C16.593 49.7232 16.3502 49.6199 16.1715 49.4388C15.9928 49.2577 15.8926 49.0136 15.8926 48.7592C15.8926 48.5048 15.9928 48.2606 16.1715 48.0796C16.3502 47.8985 16.593 47.7951 16.8473 47.7918H42.8237C42.9518 47.7901 43.079 47.8139 43.1978 47.8617C43.3167 47.9096 43.4249 47.9806 43.5161 48.0706C43.6072 48.1606 43.6797 48.2678 43.7291 48.386C43.7785 48.5042 43.8039 48.6311 43.8039 48.7592C43.8039 48.8873 43.7785 49.0142 43.7291 49.1324C43.6797 49.2506 43.6072 49.3578 43.5161 49.4478C43.4249 49.5378 43.3167 49.6088 43.1978 49.6566C43.079 49.7045 42.9518 49.7283 42.8237 49.7266H16.8473ZM16.8473 66.1244C16.593 66.121 16.3502 66.0176 16.1715 65.8366C15.9928 65.6555 15.8926 65.4114 15.8926 65.157C15.8926 64.9026 15.9928 64.6584 16.1715 64.4774C16.3502 64.2963 16.593 64.1929 16.8473 64.1895H41.3221C41.5764 64.1929 41.8192 64.2963 41.9979 64.4774C42.1766 64.6584 42.2768 64.9026 42.2768 65.157C42.2768 65.4114 42.1766 65.6555 41.9979 65.8366C41.8192 66.0176 41.5764 66.121 41.3221 66.1244H16.8473ZM16.8473 57.9255C16.5907 57.9255 16.3446 57.8236 16.1632 57.6421C15.9818 57.4607 15.8798 57.2146 15.8798 56.958C15.8798 56.7014 15.9818 56.4553 16.1632 56.2739C16.3446 56.0924 16.5907 55.9905 16.8473 55.9905H40.5716C40.8282 55.9905 41.0743 56.0924 41.2557 56.2739C41.4371 56.4553 41.5391 56.7014 41.5391 56.958C41.5391 57.2146 41.4371 57.4607 41.2557 57.6421C41.0743 57.8236 40.8282 57.9255 40.5716 57.9255H16.8473ZM71.1192 73.1786C70.4853 73.9949 70.1405 75.2221 68.9506 75.8058C67.9322 76.3053 66.9282 76.0297 65.8924 75.9401L69.7016 82.6211L70.6914 79.6909C70.7664 79.4662 70.9215 79.277 71.127 79.1592C71.3326 79.0415 71.5743 79.0036 71.806 79.0526V79.0514L74.8332 79.6922L71.1192 73.1786ZM57.1706 75.9398C56.1347 76.0297 55.1308 76.3053 54.1124 75.8054C52.9225 75.2217 52.5773 73.9937 51.9437 73.1782L48.2296 79.6927L51.2567 79.0519V79.0531C51.4885 79.0041 51.7301 79.0421 51.9357 79.1598C52.1412 79.2775 52.2962 79.4667 52.3712 79.6914L53.361 82.6216L57.1706 75.9398Z" fill="#1D1D1B"/>
<path fill-rule="evenodd" clip-rule="evenodd" d="M62.9472 46.364C61.6035 45.4973 61.4599 45.4974 60.1154 46.364C58.6373 47.3164 58.1309 47.436 56.3884 47.2188C54.9008 47.034 54.8407 47.0579 54.0896 48.3406C53.2039 49.8534 52.8011 50.1752 51.1298 50.709C49.7397 51.1531 49.6957 51.2112 49.561 52.6658C49.3997 54.4058 49.1687 54.8819 47.9016 56.082C46.795 57.1301 46.7772 57.2212 47.2922 58.6791C47.8947 60.3847 47.8947 60.9156 47.2922 62.621C46.7772 64.079 46.7948 64.17 47.9016 65.2181C49.1687 66.4183 49.3995 66.8943 49.561 68.6341C49.6953 70.0889 49.7397 70.147 51.1299 70.5911C52.7243 71.1006 53.1666 71.3834 54.0896 72.9595C54.8407 74.2421 54.9008 74.2665 56.3884 74.0812C58.1312 73.8642 58.6378 73.9836 60.1154 74.936C61.4592 75.8027 61.6028 75.8025 62.9472 74.936C64.4254 73.9836 64.9318 73.8642 66.6743 74.0812C68.1616 74.266 68.2219 74.2421 68.9729 72.9595C69.8998 71.3766 70.3464 71.0976 71.9327 70.5911C73.323 70.147 73.367 70.0887 73.5017 68.6341C73.663 66.8943 73.8939 66.4183 75.1611 65.2181C76.2678 64.17 76.2854 64.0792 75.7705 62.621C75.168 60.9153 75.168 60.3848 75.7705 58.6791C76.2854 57.221 76.2676 57.1299 75.1611 56.082C73.8939 54.882 73.663 54.4057 73.5017 52.6658C73.3673 51.2112 73.323 51.1531 71.9329 50.709C70.2616 50.175 69.859 49.8534 68.9729 48.3406C68.2181 47.0515 68.1539 47.0349 66.6743 47.219C64.9314 47.4358 64.4255 47.3169 62.9472 46.364ZM61.5312 50.9736C63.4451 50.9736 65.316 51.5411 66.9073 52.6044C68.4986 53.6677 69.7389 55.1789 70.4713 56.9471C71.2037 58.7153 71.3954 60.661 71.022 62.5381C70.6486 64.4152 69.727 66.1394 68.3737 67.4927C67.0204 68.846 65.2962 69.7676 63.4191 70.141C61.542 70.5144 59.5963 70.3227 57.8281 69.5903C56.06 68.8579 54.5487 67.6176 53.4854 66.0263C52.4221 64.435 51.8546 62.5641 51.8546 60.6502C51.8547 58.0838 52.8742 55.6226 54.6889 53.8079C56.5036 51.9932 58.9649 50.9736 61.5312 50.9736ZM34.9302 29.3291L25.1442 23.6791V34.9844L30.5209 38.0887L30.5198 38.0904L34.9302 40.6366V29.3291ZM26.1068 22.0062L35.8977 27.6588L45.6884 22.0062L41.2744 19.4578L41.2754 19.4561L35.8977 16.3513L26.1068 22.0062ZM46.6512 23.6791L36.865 29.3291V40.6366L46.6512 34.9844V23.6791ZM10.9834 11.9257H15.6665C15.988 11.9242 16.2959 11.7958 16.5233 11.5685C16.7507 11.3412 16.8791 11.0333 16.8806 10.7118V4.78064L10.9834 11.9257Z" fill="#1D1D1B"/>
</svg>
