<svg width="65" height="65" viewBox="0 0 65 65" fill="none" xmlns="http://www.w3.org/2000/svg">
<g clip-path="url(#clip0_124_2285)">
<path d="M15.479 27.6031H0V0.0418701H9.5352V7.97593C9.53513 8.06829 9.55948 8.15903 9.60577 8.23895C9.65206 8.31887 9.71865 8.38513 9.79879 8.43104C9.87894 8.47694 9.96979 8.50085 10.0621 8.50034C10.1545 8.49983 10.2451 8.47492 10.3247 8.42814L13.7805 6.39981L17.2364 8.42814C17.316 8.47499 17.4066 8.49993 17.499 8.50042C17.5913 8.50091 17.6822 8.47694 17.7623 8.43093C17.8424 8.38505 17.909 8.3188 17.9553 8.2389C18.0016 8.159 18.026 8.06828 18.0259 7.97593V0.0418701H27.5609V15.6975L15.741 22.5216C15.7254 22.5305 15.7108 22.541 15.6964 22.5513C15.6925 22.554 15.6885 22.5564 15.6848 22.5592C15.6612 22.5775 15.6393 22.5979 15.6192 22.62C15.6138 22.6256 15.6089 22.6315 15.6039 22.6374C15.5635 22.6852 15.5319 22.7399 15.5106 22.7989C15.508 22.8063 15.5053 22.8136 15.503 22.8211C15.494 22.8495 15.4874 22.8786 15.4833 22.9082C15.4827 22.9125 15.4828 22.9168 15.4824 22.9214C15.4803 22.9394 15.479 22.9575 15.4788 22.9757V27.6031H15.479ZM13.5152 5.34C13.5957 5.29286 13.6872 5.26801 13.7805 5.26801C13.8738 5.26801 13.9654 5.29286 14.0458 5.34L16.9776 7.06073V0.0418701H10.5836V7.0606L13.5152 5.34ZM18.0259 43.7975V45.3311C18.0259 45.4235 18.0015 45.5141 17.9552 45.594C17.9089 45.6739 17.8423 45.7401 17.7622 45.786C17.6821 45.8319 17.5913 45.8558 17.499 45.8553C17.4066 45.8549 17.3161 45.83 17.2364 45.7833L13.7805 43.755L10.3247 45.7833C10.2451 45.83 10.1545 45.8549 10.0622 45.8553C9.96985 45.8558 9.87904 45.8319 9.79892 45.786C9.7188 45.7401 9.65222 45.6739 9.60592 45.594C9.55961 45.5141 9.53521 45.4235 9.5352 45.3311V37.3968H0V64.9581H27.5609V49.3025L18.0259 43.7975ZM10.5836 37.3968V44.4157L13.5152 42.6951C13.5957 42.6479 13.6872 42.6231 13.7805 42.6231C13.8738 42.6231 13.9654 42.6479 14.0458 42.6951L16.9776 44.4157V43.1921L15.741 42.4782C15.6614 42.4322 15.5952 42.3661 15.5492 42.2864C15.5032 42.2067 15.479 42.1164 15.479 42.0244V37.3968H10.5836ZM55.4651 7.97593C55.4651 8.06829 55.4408 8.15903 55.3945 8.23895C55.3482 8.31887 55.2816 8.38513 55.2015 8.43104C55.1213 8.47694 55.0305 8.50085 54.9381 8.50034C54.8458 8.49983 54.7552 8.47492 54.6755 8.42814L51.2197 6.39981L47.7638 8.42814C47.6842 8.47499 47.5936 8.49993 47.5013 8.50042C47.4089 8.50091 47.3181 8.47694 47.238 8.43093C47.1578 8.38505 47.0912 8.3188 47.0449 8.2389C46.9986 8.159 46.9743 8.06828 46.9743 7.97593V0.0418701H37.439V15.6975L49.2588 22.5216C49.2744 22.5306 49.289 22.541 49.3035 22.5514C49.3073 22.5541 49.3114 22.5564 49.3149 22.5592C49.3388 22.5774 49.3604 22.5981 49.3806 22.62C49.3859 22.6256 49.3909 22.6315 49.3958 22.6374C49.4363 22.6852 49.4679 22.7399 49.4891 22.7989C49.4918 22.8063 49.4945 22.8136 49.4967 22.8211C49.5055 22.8494 49.5126 22.8785 49.5164 22.9082C49.517 22.9125 49.5169 22.9168 49.5173 22.9214C49.5192 22.9393 49.521 22.9574 49.521 22.9757V27.6033H65V0.0418701H55.4651V7.97593ZM50.9544 5.34C51.0349 5.29286 51.1265 5.26801 51.2197 5.26801C51.313 5.26801 51.4046 5.29286 51.4851 5.34L54.4167 7.06073V0.0418701H48.0227V7.0606L50.9544 5.34ZM55.4651 45.3311C55.465 45.4235 55.4406 45.5141 55.3943 45.594C55.348 45.6739 55.2814 45.7401 55.2013 45.786C55.1212 45.8319 55.0304 45.8558 54.9381 45.8553C54.8457 45.8549 54.7552 45.83 54.6755 45.7833L51.2197 43.755L47.7638 45.7833C47.6842 45.83 47.5936 45.8549 47.5013 45.8553C47.409 45.8558 47.3181 45.8319 47.238 45.786C47.1579 45.7401 47.0913 45.6739 47.045 45.594C46.9987 45.5141 46.9743 45.4235 46.9743 45.3311V43.7973L37.439 49.3024V64.9581H65V37.3968H55.4651V45.3311ZM49.521 42.0244C49.521 42.1164 49.4968 42.2068 49.4508 42.2864C49.4048 42.3661 49.3386 42.4323 49.259 42.4782L48.0227 43.192V44.4157L50.9544 42.6951C51.0349 42.6479 51.1265 42.6231 51.2197 42.6231C51.313 42.6231 51.4046 42.6479 51.4851 42.6951L54.4167 44.4157V37.3968H49.521V42.0244ZM48.4726 23.8834L33.0242 32.8025V50.6408L48.4726 41.7217V23.8834ZM22.9096 26.9627V31.3351L25.9198 33.0729V29.0034C25.9198 28.9975 25.9213 28.9921 25.9215 28.9862C25.9221 28.9639 25.9244 28.9416 25.9283 28.9196C25.9303 28.9069 25.9323 28.8948 25.9351 28.8826C25.9403 28.862 25.9466 28.8417 25.954 28.8219C25.9585 28.81 25.9628 28.798 25.9681 28.7866C25.9731 28.7758 25.9785 28.7658 25.984 28.7555C25.9865 28.7509 25.9877 28.746 25.9904 28.7415C25.993 28.737 25.9966 28.7335 25.9994 28.729C26.0055 28.7191 26.0114 28.7094 26.0182 28.6999C26.0255 28.6897 26.0335 28.6802 26.0416 28.6706C26.0487 28.6619 26.0557 28.6533 26.0633 28.6453C26.0787 28.629 26.0951 28.6138 26.1125 28.5997C26.1216 28.5921 26.1306 28.5847 26.1402 28.5778C26.1492 28.5714 26.1587 28.5654 26.1681 28.5596C26.1729 28.5566 26.1768 28.5525 26.1819 28.5496L41.8924 19.4792L38.8821 17.7413L22.9096 26.9627ZM31.9758 50.6408V32.8025L26.968 29.9113V33.981C26.968 34.073 26.9437 34.1633 26.8977 34.243C26.8517 34.3226 26.7856 34.3887 26.7059 34.4347C26.6263 34.4807 26.5359 34.505 26.444 34.505C26.352 34.5051 26.2616 34.4809 26.1819 34.435L22.1234 32.0918C22.0437 32.0458 21.9775 31.9797 21.9315 31.9C21.8855 31.8203 21.8613 31.73 21.8613 31.638V26.963L16.5275 23.8835V41.7219L31.9758 50.6408ZM32.5 14.0566L17.0516 22.9756L22.3853 26.0549L37.8337 17.1359L32.5 14.0566ZM47.9484 22.9756L42.9405 20.0843L27.4923 29.0036L32.5 31.8945L47.9484 22.9756Z" fill="#1D1D1B"/>
</g>
<defs>
<clipPath id="clip0_124_2285">
<rect width="65" height="65" fill="white"/>
</clipPath>
</defs>
</svg>
