<svg width="394" height="224" viewBox="0 0 394 224" fill="none" xmlns="http://www.w3.org/2000/svg">
<rect x="5.5" y="5.5" width="166" height="213" stroke="#C4C4C4" stroke-width="11"/>
<rect x="5" y="5" width="167" height="214" stroke="white" stroke-width="10"/>
<rect x="0.5" y="0.5" width="176" height="223" stroke="#C4C4C4"/>
<rect x="10.5" y="213.5" width="203" height="99" transform="rotate(-90 10.5 213.5)" fill="#D9D9D9" stroke="#1D1D1B"/>
<rect x="99" y="212.701" width="201.401" height="10" transform="rotate(-90 99 212.701)" fill="white"/>
<line x1="12.5" y1="213" x2="12.5" y2="11" stroke="#C4C4C4"/>
<line x1="14.5" y1="213" x2="14.5" y2="11" stroke="#C4C4C4"/>
<line x1="16.5" y1="213" x2="16.5" y2="11" stroke="#C4C4C4"/>
<line x1="18.5" y1="213" x2="18.5" y2="11" stroke="#C4C4C4"/>
<line x1="20.5" y1="213" x2="20.5" y2="11" stroke="#C4C4C4"/>
<line x1="22.5" y1="213" x2="22.5" y2="11" stroke="#C4C4C4"/>
<line x1="24.5" y1="213" x2="24.5" y2="11" stroke="#C4C4C4"/>
<line x1="26.5" y1="213" x2="26.5" y2="11" stroke="#C4C4C4"/>
<line x1="28.5" y1="213" x2="28.5" y2="11" stroke="#C4C4C4"/>
<line x1="30.5" y1="213" x2="30.5" y2="11" stroke="#C4C4C4"/>
<line x1="32.5" y1="213" x2="32.5" y2="11" stroke="#C4C4C4"/>
<line x1="34.5" y1="213" x2="34.5" y2="11" stroke="#C4C4C4"/>
<line x1="36.5" y1="213" x2="36.5" y2="11" stroke="#C4C4C4"/>
<line x1="38.5" y1="213" x2="38.5" y2="11" stroke="#C4C4C4"/>
<line x1="40.5" y1="213" x2="40.5" y2="11" stroke="#C4C4C4"/>
<line x1="42.5" y1="213" x2="42.5" y2="11" stroke="#C4C4C4"/>
<line x1="44.5" y1="213" x2="44.5" y2="11" stroke="#C4C4C4"/>
<line x1="46.5" y1="213" x2="46.5" y2="11" stroke="#C4C4C4"/>
<line x1="48.5" y1="213" x2="48.5" y2="11" stroke="#C4C4C4"/>
<line x1="50.5" y1="213" x2="50.5" y2="11" stroke="#C4C4C4"/>
<line x1="52.5" y1="213" x2="52.5" y2="11" stroke="#C4C4C4"/>
<line x1="54.5" y1="213" x2="54.5" y2="11" stroke="#C4C4C4"/>
<line x1="56.5" y1="213" x2="56.5" y2="11" stroke="#C4C4C4"/>
<line x1="58.5" y1="213" x2="58.5" y2="11" stroke="#C4C4C4"/>
<line x1="60.5" y1="213" x2="60.5" y2="11" stroke="#C4C4C4"/>
<line x1="62.5" y1="213" x2="62.5" y2="11" stroke="#C4C4C4"/>
<line x1="64.5" y1="213" x2="64.5" y2="11" stroke="#C4C4C4"/>
<line x1="66.5" y1="213" x2="66.5" y2="11" stroke="#C4C4C4"/>
<line x1="68.5" y1="213" x2="68.5" y2="11" stroke="#C4C4C4"/>
<line x1="70.5" y1="213" x2="70.5" y2="11" stroke="#C4C4C4"/>
<line x1="72.5" y1="213" x2="72.5" y2="11" stroke="#C4C4C4"/>
<line x1="74.5" y1="213" x2="74.5" y2="11" stroke="#C4C4C4"/>
<line x1="76.5" y1="213" x2="76.5" y2="11" stroke="#C4C4C4"/>
<line x1="78.5" y1="213" x2="78.5" y2="11" stroke="#C4C4C4"/>
<line x1="80.5" y1="213" x2="80.5" y2="11" stroke="#C4C4C4"/>
<line x1="82.5" y1="213" x2="82.5" y2="11" stroke="#C4C4C4"/>
<line x1="84.5" y1="213" x2="84.5" y2="11" stroke="#C4C4C4"/>
<line x1="86.5" y1="213" x2="86.5" y2="11" stroke="#C4C4C4"/>
<line x1="88.5" y1="213" x2="88.5" y2="11" stroke="#C4C4C4"/>
<line x1="90.5" y1="213" x2="90.5" y2="11" stroke="#C4C4C4"/>
<line x1="92.5" y1="213" x2="92.5" y2="11" stroke="#C4C4C4"/>
<line x1="94.5" y1="213" x2="94.5" y2="11" stroke="#C4C4C4"/>
<line x1="96.5" y1="213" x2="96.5" y2="11" stroke="#C4C4C4"/>
<line x1="98.5" y1="213" x2="98.5" y2="11" stroke="#C4C4C4"/>
<line x1="98" y1="165.053" x2="11" y2="165.053" stroke="#C4C4C4"/>
<line x1="98" y1="113.001" x2="11" y2="113.001" stroke="#C4C4C4"/>
<line x1="98" y1="60.9492" x2="11" y2="60.9492" stroke="#C4C4C4"/>
<rect x="222.5" y="5.5" width="166" height="213" stroke="#C4C4C4" stroke-width="11"/>
<rect x="222" y="5" width="167" height="214" stroke="white" stroke-width="10"/>
<rect x="217.5" y="0.5" width="176" height="223" stroke="#C4C4C4"/>
<rect x="-0.5" y="-0.5" width="203" height="99" transform="matrix(4.37114e-08 -1 -1 -4.37114e-08 383 213)" fill="#D9D9D9" stroke="#1D1D1B"/>
<rect width="201.401" height="10" transform="matrix(4.37114e-08 -1 -1 -4.37114e-08 295 212.701)" fill="white"/>
<line y1="-0.5" x2="202" y2="-0.5" transform="matrix(-4.26921e-08 -1 -1 4.4755e-08 381 213)" stroke="#C4C4C4"/>
<line y1="-0.5" x2="202" y2="-0.5" transform="matrix(-4.26921e-08 -1 -1 4.4755e-08 379 213)" stroke="#C4C4C4"/>
<line y1="-0.5" x2="202" y2="-0.5" transform="matrix(-4.26921e-08 -1 -1 4.4755e-08 377 213)" stroke="#C4C4C4"/>
<line y1="-0.5" x2="202" y2="-0.5" transform="matrix(-4.26921e-08 -1 -1 4.4755e-08 375 213)" stroke="#C4C4C4"/>
<line y1="-0.5" x2="202" y2="-0.5" transform="matrix(-4.26921e-08 -1 -1 4.4755e-08 373 213)" stroke="#C4C4C4"/>
<line y1="-0.5" x2="202" y2="-0.5" transform="matrix(-4.26921e-08 -1 -1 4.4755e-08 371 213)" stroke="#C4C4C4"/>
<line y1="-0.5" x2="202" y2="-0.5" transform="matrix(-4.26921e-08 -1 -1 4.4755e-08 369 213)" stroke="#C4C4C4"/>
<line y1="-0.5" x2="202" y2="-0.5" transform="matrix(-4.26921e-08 -1 -1 4.4755e-08 367 213)" stroke="#C4C4C4"/>
<line y1="-0.5" x2="202" y2="-0.5" transform="matrix(-4.26921e-08 -1 -1 4.4755e-08 365 213)" stroke="#C4C4C4"/>
<line y1="-0.5" x2="202" y2="-0.5" transform="matrix(-4.26921e-08 -1 -1 4.4755e-08 363 213)" stroke="#C4C4C4"/>
<line y1="-0.5" x2="202" y2="-0.5" transform="matrix(-4.26921e-08 -1 -1 4.4755e-08 361 213)" stroke="#C4C4C4"/>
<line y1="-0.5" x2="202" y2="-0.5" transform="matrix(-4.26921e-08 -1 -1 4.4755e-08 359 213)" stroke="#C4C4C4"/>
<line y1="-0.5" x2="202" y2="-0.5" transform="matrix(-4.26921e-08 -1 -1 4.4755e-08 357 213)" stroke="#C4C4C4"/>
<line y1="-0.5" x2="202" y2="-0.5" transform="matrix(-4.26921e-08 -1 -1 4.4755e-08 355 213)" stroke="#C4C4C4"/>
<line y1="-0.5" x2="202" y2="-0.5" transform="matrix(-4.26921e-08 -1 -1 4.4755e-08 353 213)" stroke="#C4C4C4"/>
<line y1="-0.5" x2="202" y2="-0.5" transform="matrix(-4.26921e-08 -1 -1 4.4755e-08 351 213)" stroke="#C4C4C4"/>
<line y1="-0.5" x2="202" y2="-0.5" transform="matrix(-4.26921e-08 -1 -1 4.4755e-08 349 213)" stroke="#C4C4C4"/>
<line y1="-0.5" x2="202" y2="-0.5" transform="matrix(-4.26921e-08 -1 -1 4.4755e-08 347 213)" stroke="#C4C4C4"/>
<line y1="-0.5" x2="202" y2="-0.5" transform="matrix(-4.26921e-08 -1 -1 4.4755e-08 345 213)" stroke="#C4C4C4"/>
<line y1="-0.5" x2="202" y2="-0.5" transform="matrix(-4.26921e-08 -1 -1 4.4755e-08 343 213)" stroke="#C4C4C4"/>
<line y1="-0.5" x2="202" y2="-0.5" transform="matrix(-4.26921e-08 -1 -1 4.4755e-08 341 213)" stroke="#C4C4C4"/>
<line y1="-0.5" x2="202" y2="-0.5" transform="matrix(-4.26921e-08 -1 -1 4.4755e-08 339 213)" stroke="#C4C4C4"/>
<line y1="-0.5" x2="202" y2="-0.5" transform="matrix(-4.26921e-08 -1 -1 4.4755e-08 337 213)" stroke="#C4C4C4"/>
<line y1="-0.5" x2="202" y2="-0.5" transform="matrix(-4.26921e-08 -1 -1 4.4755e-08 335 213)" stroke="#C4C4C4"/>
<line y1="-0.5" x2="202" y2="-0.5" transform="matrix(-4.26921e-08 -1 -1 4.4755e-08 333 213)" stroke="#C4C4C4"/>
<line y1="-0.5" x2="202" y2="-0.5" transform="matrix(-4.26921e-08 -1 -1 4.4755e-08 331 213)" stroke="#C4C4C4"/>
<line y1="-0.5" x2="202" y2="-0.5" transform="matrix(-4.26921e-08 -1 -1 4.4755e-08 329 213)" stroke="#C4C4C4"/>
<line y1="-0.5" x2="202" y2="-0.5" transform="matrix(-4.26921e-08 -1 -1 4.4755e-08 327 213)" stroke="#C4C4C4"/>
<line y1="-0.5" x2="202" y2="-0.5" transform="matrix(-4.26921e-08 -1 -1 4.4755e-08 325 213)" stroke="#C4C4C4"/>
<line y1="-0.5" x2="202" y2="-0.5" transform="matrix(-4.26921e-08 -1 -1 4.4755e-08 323 213)" stroke="#C4C4C4"/>
<line y1="-0.5" x2="202" y2="-0.5" transform="matrix(-4.26921e-08 -1 -1 4.4755e-08 321 213)" stroke="#C4C4C4"/>
<line y1="-0.5" x2="202" y2="-0.5" transform="matrix(-4.26921e-08 -1 -1 4.4755e-08 319 213)" stroke="#C4C4C4"/>
<line y1="-0.5" x2="202" y2="-0.5" transform="matrix(-4.26921e-08 -1 -1 4.4755e-08 317 213)" stroke="#C4C4C4"/>
<line y1="-0.5" x2="202" y2="-0.5" transform="matrix(-4.26921e-08 -1 -1 4.4755e-08 315 213)" stroke="#C4C4C4"/>
<line y1="-0.5" x2="202" y2="-0.5" transform="matrix(-4.26921e-08 -1 -1 4.4755e-08 313 213)" stroke="#C4C4C4"/>
<line y1="-0.5" x2="202" y2="-0.5" transform="matrix(-4.26921e-08 -1 -1 4.4755e-08 311 213)" stroke="#C4C4C4"/>
<line y1="-0.5" x2="202" y2="-0.5" transform="matrix(-4.26921e-08 -1 -1 4.4755e-08 309 213)" stroke="#C4C4C4"/>
<line y1="-0.5" x2="202" y2="-0.5" transform="matrix(-4.26921e-08 -1 -1 4.4755e-08 307 213)" stroke="#C4C4C4"/>
<line y1="-0.5" x2="202" y2="-0.5" transform="matrix(-4.26921e-08 -1 -1 4.4755e-08 305 213)" stroke="#C4C4C4"/>
<line y1="-0.5" x2="202" y2="-0.5" transform="matrix(-4.26921e-08 -1 -1 4.4755e-08 303 213)" stroke="#C4C4C4"/>
<line y1="-0.5" x2="202" y2="-0.5" transform="matrix(-4.26921e-08 -1 -1 4.4755e-08 301 213)" stroke="#C4C4C4"/>
<line y1="-0.5" x2="202" y2="-0.5" transform="matrix(-4.26921e-08 -1 -1 4.4755e-08 299 213)" stroke="#C4C4C4"/>
<line y1="-0.5" x2="202" y2="-0.5" transform="matrix(-4.26921e-08 -1 -1 4.4755e-08 297 213)" stroke="#C4C4C4"/>
<line y1="-0.5" x2="202" y2="-0.5" transform="matrix(-4.26921e-08 -1 -1 4.4755e-08 295 213)" stroke="#C4C4C4"/>
<line y1="-0.5" x2="87" y2="-0.5" transform="matrix(1 1.13763e-07 6.71814e-08 -1 296 164.553)" stroke="#C4C4C4"/>
<line y1="-0.5" x2="87" y2="-0.5" transform="matrix(1 1.13763e-07 6.71814e-08 -1 296 112.501)" stroke="#C4C4C4"/>
<line y1="-0.5" x2="87" y2="-0.5" transform="matrix(1 1.13763e-07 6.71814e-08 -1 296 60.4492)" stroke="#C4C4C4"/>
<path d="M252.616 105.869L246 112.485L252.616 119.102L253.973 117.745L249.753 113.525L261.946 113.51L261.961 111.475L249.753 111.445L253.973 107.225L252.616 105.869Z" fill="#EE3321"/>
</svg>
