<svg width="394" height="224" viewBox="0 0 394 224" fill="none" xmlns="http://www.w3.org/2000/svg">
<rect x="222.5" y="5.5" width="166" height="213" stroke="#C4C4C4" stroke-width="11"/>
<rect x="222" y="5" width="167" height="214" stroke="white" stroke-width="10"/>
<rect x="217.5" y="0.5" width="176" height="223" stroke="#C4C4C4"/>
<rect x="-0.5" y="0.5" width="156" height="99" transform="matrix(-1 -8.74228e-08 -8.74228e-08 1 383 10)" fill="#D9D9D9" stroke="#1D1D1B"/>
<rect width="155" height="10" transform="matrix(-1 -8.74228e-08 -8.74228e-08 1 383 99)" fill="white"/>
<line y1="-0.5" x2="155" y2="-0.5" transform="matrix(-1 0 0 1 383 13)" stroke="#C4C4C4"/>
<line y1="-0.5" x2="155" y2="-0.5" transform="matrix(-1 0 0 1 383 15)" stroke="#C4C4C4"/>
<line y1="-0.5" x2="155" y2="-0.5" transform="matrix(-1 0 0 1 383 17)" stroke="#C4C4C4"/>
<line y1="-0.5" x2="155" y2="-0.5" transform="matrix(-1 0 0 1 383 19)" stroke="#C4C4C4"/>
<line y1="-0.5" x2="155" y2="-0.5" transform="matrix(-1 0 0 1 383 21)" stroke="#C4C4C4"/>
<line y1="-0.5" x2="155" y2="-0.5" transform="matrix(-1 0 0 1 383 23)" stroke="#C4C4C4"/>
<line y1="-0.5" x2="155" y2="-0.5" transform="matrix(-1 0 0 1 383 25)" stroke="#C4C4C4"/>
<line y1="-0.5" x2="155" y2="-0.5" transform="matrix(-1 0 0 1 383 27)" stroke="#C4C4C4"/>
<line y1="-0.5" x2="155" y2="-0.5" transform="matrix(-1 0 0 1 383 29)" stroke="#C4C4C4"/>
<line y1="-0.5" x2="155" y2="-0.5" transform="matrix(-1 0 0 1 383 31)" stroke="#C4C4C4"/>
<line y1="-0.5" x2="155" y2="-0.5" transform="matrix(-1 0 0 1 383 33.0002)" stroke="#C4C4C4"/>
<line y1="-0.5" x2="155" y2="-0.5" transform="matrix(-1 0 0 1 383 35.0002)" stroke="#C4C4C4"/>
<line y1="-0.5" x2="155" y2="-0.5" transform="matrix(-1 0 0 1 383 37.0002)" stroke="#C4C4C4"/>
<line y1="-0.5" x2="155" y2="-0.5" transform="matrix(-1 0 0 1 383 39.0002)" stroke="#C4C4C4"/>
<line y1="-0.5" x2="155" y2="-0.5" transform="matrix(-1 0 0 1 383 41.0002)" stroke="#C4C4C4"/>
<line y1="-0.5" x2="155" y2="-0.5" transform="matrix(-1 0 0 1 383 43.0002)" stroke="#C4C4C4"/>
<line y1="-0.5" x2="155" y2="-0.5" transform="matrix(-1 0 0 1 383 45.0002)" stroke="#C4C4C4"/>
<line y1="-0.5" x2="155" y2="-0.5" transform="matrix(-1 0 0 1 383 47.0002)" stroke="#C4C4C4"/>
<line y1="-0.5" x2="155" y2="-0.5" transform="matrix(-1 0 0 1 383 49.0002)" stroke="#C4C4C4"/>
<line y1="-0.5" x2="155" y2="-0.5" transform="matrix(-1 0 0 1 383 51.0002)" stroke="#C4C4C4"/>
<line y1="-0.5" x2="155" y2="-0.5" transform="matrix(-1 0 0 1 383 53.0002)" stroke="#C4C4C4"/>
<line y1="-0.5" x2="155" y2="-0.5" transform="matrix(-1 0 0 1 383 55.0002)" stroke="#C4C4C4"/>
<line y1="-0.5" x2="155" y2="-0.5" transform="matrix(-1 0 0 1 383 57.0002)" stroke="#C4C4C4"/>
<line y1="-0.5" x2="155" y2="-0.5" transform="matrix(-1 0 0 1 383 59.0002)" stroke="#C4C4C4"/>
<line y1="-0.5" x2="155" y2="-0.5" transform="matrix(-1 0 0 1 383 61.0002)" stroke="#C4C4C4"/>
<line y1="-0.5" x2="155" y2="-0.5" transform="matrix(-1 0 0 1 383 63.0002)" stroke="#C4C4C4"/>
<line y1="-0.5" x2="155" y2="-0.5" transform="matrix(-1 0 0 1 383 65.0005)" stroke="#C4C4C4"/>
<line y1="-0.5" x2="155" y2="-0.5" transform="matrix(-1 0 0 1 383 67.0005)" stroke="#C4C4C4"/>
<line y1="-0.5" x2="155" y2="-0.5" transform="matrix(-1 0 0 1 383 69.0005)" stroke="#C4C4C4"/>
<line y1="-0.5" x2="155" y2="-0.5" transform="matrix(-1 0 0 1 383 71.0005)" stroke="#C4C4C4"/>
<line y1="-0.5" x2="155" y2="-0.5" transform="matrix(-1 0 0 1 383 73.0005)" stroke="#C4C4C4"/>
<line y1="-0.5" x2="155" y2="-0.5" transform="matrix(-1 0 0 1 383 75.0005)" stroke="#C4C4C4"/>
<line y1="-0.5" x2="155" y2="-0.5" transform="matrix(-1 0 0 1 383 77.0005)" stroke="#C4C4C4"/>
<line y1="-0.5" x2="155" y2="-0.5" transform="matrix(-1 0 0 1 383 79.0005)" stroke="#C4C4C4"/>
<line y1="-0.5" x2="155" y2="-0.5" transform="matrix(-1 0 0 1 383 81.0005)" stroke="#C4C4C4"/>
<line y1="-0.5" x2="155" y2="-0.5" transform="matrix(-1 0 0 1 383 83.0005)" stroke="#C4C4C4"/>
<line y1="-0.5" x2="155" y2="-0.5" transform="matrix(-1 0 0 1 383 85.0005)" stroke="#C4C4C4"/>
<line y1="-0.5" x2="155" y2="-0.5" transform="matrix(-1 0 0 1 383 87.0005)" stroke="#C4C4C4"/>
<line y1="-0.5" x2="155" y2="-0.5" transform="matrix(-1 0 0 1 383 89.0005)" stroke="#C4C4C4"/>
<line y1="-0.5" x2="155" y2="-0.5" transform="matrix(-1 0 0 1 383 91.0005)" stroke="#C4C4C4"/>
<line y1="-0.5" x2="155" y2="-0.5" transform="matrix(-1 0 0 1 383 93.0005)" stroke="#C4C4C4"/>
<line y1="-0.5" x2="155" y2="-0.5" transform="matrix(-1 0 0 1 383 95.0005)" stroke="#C4C4C4"/>
<line y1="-0.5" x2="155" y2="-0.5" transform="matrix(-1 0 0 1 383 97.0005)" stroke="#C4C4C4"/>
<line y1="-0.5" x2="155" y2="-0.5" transform="matrix(-1 0 0 1 383 99.0007)" stroke="#C4C4C4"/>
<line y1="-0.5" x2="87" y2="-0.5" transform="matrix(1.31134e-07 -1 -1 -1.31134e-07 346 98)" stroke="#C4C4C4"/>
<line y1="-0.5" x2="87" y2="-0.5" transform="matrix(1.31134e-07 -1 -1 -1.31134e-07 306 98)" stroke="#C4C4C4"/>
<line y1="-0.5" x2="87" y2="-0.5" transform="matrix(1.31134e-07 -1 -1 -1.31134e-07 266 98)" stroke="#C4C4C4"/>
<path d="M298.869 167.354L305.485 173.97L312.102 167.354L310.745 165.998L306.525 170.218L306.51 158.025L304.475 158.01L304.445 170.218L300.225 165.998L298.869 167.354Z" fill="#EE3321"/>
<rect x="5.5" y="5.5" width="166" height="213" stroke="#C4C4C4" stroke-width="11"/>
<rect x="5" y="5" width="167" height="214" stroke="white" stroke-width="10"/>
<rect x="0.5" y="0.5" width="176" height="223" stroke="#C4C4C4"/>
<rect x="166.5" y="213.5" width="156" height="99" transform="rotate(180 166.5 213.5)" fill="#D9D9D9" stroke="#1D1D1B"/>
<rect x="166" y="125" width="155" height="10" transform="rotate(180 166 125)" fill="white"/>
<line x1="166" y1="211.5" x2="11" y2="211.5" stroke="#C4C4C4"/>
<line x1="166" y1="209.5" x2="11" y2="209.5" stroke="#C4C4C4"/>
<line x1="166" y1="207.5" x2="11" y2="207.5" stroke="#C4C4C4"/>
<line x1="166" y1="205.5" x2="11" y2="205.5" stroke="#C4C4C4"/>
<line x1="166" y1="203.5" x2="11" y2="203.5" stroke="#C4C4C4"/>
<line x1="166" y1="201.5" x2="11" y2="201.5" stroke="#C4C4C4"/>
<line x1="166" y1="199.5" x2="11" y2="199.5" stroke="#C4C4C4"/>
<line x1="166" y1="197.5" x2="11" y2="197.5" stroke="#C4C4C4"/>
<line x1="166" y1="195.5" x2="11" y2="195.5" stroke="#C4C4C4"/>
<line x1="166" y1="193.5" x2="11" y2="193.5" stroke="#C4C4C4"/>
<line x1="166" y1="191.5" x2="11" y2="191.5" stroke="#C4C4C4"/>
<line x1="166" y1="189.5" x2="11" y2="189.5" stroke="#C4C4C4"/>
<line x1="166" y1="187.5" x2="11" y2="187.5" stroke="#C4C4C4"/>
<line x1="166" y1="185.5" x2="11" y2="185.5" stroke="#C4C4C4"/>
<line x1="166" y1="183.5" x2="11" y2="183.5" stroke="#C4C4C4"/>
<line x1="166" y1="181.5" x2="11" y2="181.5" stroke="#C4C4C4"/>
<line x1="166" y1="179.5" x2="11" y2="179.5" stroke="#C4C4C4"/>
<line x1="166" y1="177.5" x2="11" y2="177.5" stroke="#C4C4C4"/>
<line x1="166" y1="175.5" x2="11" y2="175.5" stroke="#C4C4C4"/>
<line x1="166" y1="173.5" x2="11" y2="173.5" stroke="#C4C4C4"/>
<line x1="166" y1="171.5" x2="11" y2="171.5" stroke="#C4C4C4"/>
<line x1="166" y1="169.5" x2="11" y2="169.5" stroke="#C4C4C4"/>
<line x1="166" y1="167.5" x2="11" y2="167.5" stroke="#C4C4C4"/>
<line x1="166" y1="165.5" x2="11" y2="165.5" stroke="#C4C4C4"/>
<line x1="166" y1="163.5" x2="11" y2="163.5" stroke="#C4C4C4"/>
<line x1="166" y1="161.5" x2="11" y2="161.5" stroke="#C4C4C4"/>
<line x1="166" y1="159.5" x2="11" y2="159.5" stroke="#C4C4C4"/>
<line x1="166" y1="157.5" x2="11" y2="157.5" stroke="#C4C4C4"/>
<line x1="166" y1="155.5" x2="11" y2="155.5" stroke="#C4C4C4"/>
<line x1="166" y1="153.5" x2="11" y2="153.5" stroke="#C4C4C4"/>
<line x1="166" y1="151.5" x2="11" y2="151.5" stroke="#C4C4C4"/>
<line x1="166" y1="149.5" x2="11" y2="149.5" stroke="#C4C4C4"/>
<line x1="166" y1="147.5" x2="11" y2="147.5" stroke="#C4C4C4"/>
<line x1="166" y1="145.5" x2="11" y2="145.5" stroke="#C4C4C4"/>
<line x1="166" y1="143.5" x2="11" y2="143.5" stroke="#C4C4C4"/>
<line x1="166" y1="141.5" x2="11" y2="141.5" stroke="#C4C4C4"/>
<line x1="166" y1="139.5" x2="11" y2="139.5" stroke="#C4C4C4"/>
<line x1="166" y1="137.5" x2="11" y2="137.5" stroke="#C4C4C4"/>
<line x1="166" y1="135.5" x2="11" y2="135.5" stroke="#C4C4C4"/>
<line x1="166" y1="133.5" x2="11" y2="133.5" stroke="#C4C4C4"/>
<line x1="166" y1="131.5" x2="11" y2="131.5" stroke="#C4C4C4"/>
<line x1="166" y1="129.5" x2="11" y2="129.5" stroke="#C4C4C4"/>
<line x1="166" y1="127.5" x2="11" y2="127.5" stroke="#C4C4C4"/>
<line x1="166" y1="125.499" x2="11" y2="125.499" stroke="#C4C4C4"/>
<line x1="129.5" y1="126" x2="129.5" y2="213" stroke="#C4C4C4"/>
<line x1="89.5" y1="126" x2="89.5" y2="213" stroke="#C4C4C4"/>
<line x1="49.5" y1="126" x2="49.5" y2="213" stroke="#C4C4C4"/>
</svg>
