<svg width="30" height="30" viewBox="0 0 30 30" fill="none" xmlns="http://www.w3.org/2000/svg">
<path d="M14.998 14.3749C14.1692 14.3749 13.3744 14.0456 12.7883 13.4596C12.2023 12.8735 11.873 12.0787 11.873 11.2499C11.873 10.4211 12.2023 9.62621 12.7883 9.04016C13.3744 8.45411 14.1692 8.12487 14.998 8.12487C15.8268 8.12487 16.6217 8.45411 17.2078 9.04016C17.7938 9.62621 18.123 10.4211 18.123 11.2499C18.123 11.6603 18.0422 12.0666 17.8852 12.4458C17.7281 12.8249 17.4979 13.1694 17.2078 13.4596C16.9176 13.7498 16.5731 13.9799 16.1939 14.137C15.8148 14.294 15.4084 14.3749 14.998 14.3749ZM14.998 2.49987C12.6774 2.49987 10.4518 3.42174 8.81086 5.06269C7.16992 6.70363 6.24805 8.92923 6.24805 11.2499C6.24805 17.8124 14.998 27.4999 14.998 27.4999C14.998 27.4999 23.748 17.8124 23.748 11.2499C23.748 8.92923 22.8262 6.70363 21.1852 5.06269C19.5443 3.42174 17.3187 2.49987 14.998 2.49987Z" fill="#EE3321"/>
</svg>
