<svg width="19" height="19" viewBox="0 0 19 19" fill="none" xmlns="http://www.w3.org/2000/svg">
<path d="M9.49967 9.10415C8.97477 9.10415 8.47136 8.89563 8.10019 8.52446C7.72903 8.1533 7.52051 7.64989 7.52051 7.12498C7.52051 6.60007 7.72903 6.09666 8.10019 5.7255C8.47136 5.35433 8.97477 5.14581 9.49967 5.14581C10.0246 5.14581 10.528 5.35433 10.8992 5.7255C11.2703 6.09666 11.4788 6.60007 11.4788 7.12498C11.4788 7.38489 11.4276 7.64225 11.3282 7.88237C11.2287 8.1225 11.0829 8.34068 10.8992 8.52446C10.7154 8.70824 10.4972 8.85403 10.2571 8.95349C10.0169 9.05295 9.75958 9.10415 9.49967 9.10415ZM9.49967 1.58331C8.02993 1.58331 6.62039 2.16717 5.58112 3.20643C4.54186 4.24569 3.95801 5.65524 3.95801 7.12498C3.95801 11.2812 9.49967 17.4166 9.49967 17.4166C9.49967 17.4166 15.0413 11.2812 15.0413 7.12498C15.0413 5.65524 14.4575 4.24569 13.4182 3.20643C12.379 2.16717 10.9694 1.58331 9.49967 1.58331Z" fill="white"/>
</svg>
