<svg width="285" height="50" viewBox="0 0 285 50" fill="none" xmlns="http://www.w3.org/2000/svg">
<line x1="166.5" y1="2.18558e-08" x2="166.5" y2="50" stroke="#EE3321"/>
<path d="M13.6525 19.15H8.40866V33.875H5.24386V19.15H0V16.125H13.6525V19.15Z" fill="white"/>
<path d="M27.0773 30.85V33.875H15.6886V16.125H26.8694V19.15H18.8765V23.425H25.7836V26.225H18.8765V30.85H27.0773Z" fill="white"/>
<path d="M31.272 16.125L35.3378 22.675L39.3804 16.125H42.8455L37.1627 25.125L42.6607 33.875H39.1956L35.3378 27.575L31.4569 33.875H27.9686L33.4666 25.125L27.7838 16.125H31.272Z" fill="white"/>
<path d="M58.288 16.125V33.875H55.1232V26.3H47.6847V33.875H44.4968V16.125H47.6847V23.3H55.1232V16.125H58.288Z" fill="white"/>
<path d="M68.7091 34C67.5079 34 66.4144 33.75 65.4288 33.25C64.4586 32.75 63.6192 32.075 62.9108 31.225C62.2178 30.3583 61.6788 29.3917 61.2938 28.325C60.9088 27.2417 60.7162 26.1333 60.7162 25C60.7162 23.8167 60.9165 22.6917 61.3169 21.625C61.7327 20.5417 62.2948 19.5833 63.0032 18.75C63.727 17.9 64.5741 17.2333 65.5443 16.75C66.5299 16.25 67.608 16 68.7784 16C69.9642 16 71.0423 16.2583 72.0125 16.775C72.9981 17.2917 73.8375 17.9833 74.5305 18.85C75.2235 19.7167 75.7625 20.6833 76.1475 21.75C76.5325 22.8167 76.725 23.9167 76.725 25.05C76.725 26.2167 76.5248 27.3417 76.1244 28.425C75.724 29.4917 75.1619 30.45 74.4381 31.3C73.7297 32.1333 72.8826 32.7917 71.897 33.275C70.9268 33.7583 69.8641 34 68.7091 34ZM63.9503 25C63.9503 25.7667 64.0581 26.5083 64.2738 27.225C64.4894 27.9417 64.7974 28.5833 65.1978 29.15C65.6136 29.7 66.1141 30.1417 66.6993 30.475C67.2999 30.7917 67.9776 30.95 68.7322 30.95C69.5022 30.95 70.1875 30.7833 70.7882 30.45C71.3888 30.1 71.8893 29.6417 72.2897 29.075C72.6901 28.4917 72.9904 27.85 73.1906 27.15C73.4062 26.4333 73.514 25.7167 73.514 25C73.514 24.2333 73.3985 23.5 73.1675 22.8C72.9519 22.0833 72.6362 21.45 72.2204 20.9C71.82 20.3333 71.3195 19.8917 70.7189 19.575C70.1336 19.2417 69.4714 19.075 68.7322 19.075C67.9468 19.075 67.2538 19.25 66.6531 19.6C66.0679 19.9333 65.5751 20.3833 65.1747 20.95C64.7743 21.5167 64.4663 22.15 64.2507 22.85C64.0505 23.55 63.9503 24.2667 63.9503 25Z" fill="white"/>
<path d="M89.612 33.875V19.15H84.807L84.7146 22.15C84.6376 24.5 84.4605 26.4417 84.1833 27.975C83.9061 29.5083 83.5057 30.7167 82.9821 31.6C82.4585 32.4667 81.7962 33.0833 80.9954 33.45C80.21 33.8 79.2629 33.975 78.154 33.975V31C78.7239 31 79.2167 30.8667 79.6325 30.6C80.0483 30.3333 80.3948 29.85 80.672 29.15C80.9646 28.45 81.1956 27.4583 81.365 26.175C81.5344 24.8917 81.6499 23.2333 81.7115 21.2L81.8733 16.125H92.7768V33.875H89.612Z" fill="white"/>
<path d="M103.225 34C102.024 34 100.93 33.75 99.9445 33.25C98.9743 32.75 98.1349 32.075 97.4265 31.225C96.7335 30.3583 96.1945 29.3917 95.8095 28.325C95.4245 27.2417 95.232 26.1333 95.232 25C95.232 23.8167 95.4322 22.6917 95.8326 21.625C96.2484 20.5417 96.8105 19.5833 97.5189 18.75C98.2427 17.9 99.0898 17.2333 100.06 16.75C101.046 16.25 102.124 16 103.294 16C104.48 16 105.558 16.2583 106.528 16.775C107.514 17.2917 108.353 17.9833 109.046 18.85C109.739 19.7167 110.278 20.6833 110.663 21.75C111.048 22.8167 111.241 23.9167 111.241 25.05C111.241 26.2167 111.041 27.3417 110.64 28.425C110.24 29.4917 109.678 30.45 108.954 31.3C108.245 32.1333 107.398 32.7917 106.413 33.275C105.442 33.7583 104.38 34 103.225 34ZM98.4661 25C98.4661 25.7667 98.5739 26.5083 98.7895 27.225C99.0051 27.9417 99.3131 28.5833 99.7135 29.15C100.129 29.7 100.63 30.1417 101.215 30.475C101.816 30.7917 102.493 30.95 103.248 30.95C104.018 30.95 104.703 30.7833 105.304 30.45C105.904 30.1 106.405 29.6417 106.805 29.075C107.206 28.4917 107.506 27.85 107.706 27.15C107.922 26.4333 108.03 25.7167 108.03 25C108.03 24.2333 107.914 23.5 107.683 22.8C107.468 22.0833 107.152 21.45 106.736 20.9C106.336 20.3333 105.835 19.8917 105.235 19.575C104.649 19.2417 103.987 19.075 103.248 19.075C102.462 19.075 101.769 19.25 101.169 19.6C100.584 19.9333 100.091 20.3833 99.6904 20.95C99.29 21.5167 98.982 22.15 98.7664 22.85C98.5662 23.55 98.4661 24.2667 98.4661 25Z" fill="white"/>
<path d="M113.732 33.875V16.125H123.804V19.15H116.897V33.875H113.732Z" fill="white"/>
<path d="M126.209 33.875V16.125H129.374V29.025L137.321 16.125H140.278V33.875H137.113V21.125L129.259 33.875H126.209Z" fill="white"/>
<path d="M143.364 33.875L147.383 26.75C146.367 26.3833 145.566 25.75 144.981 24.85C144.411 23.9333 144.126 22.85 144.126 21.6C144.126 20.55 144.357 19.6167 144.819 18.8C145.281 17.9667 145.92 17.3167 146.737 16.85C147.553 16.3667 148.508 16.125 149.601 16.125H156V33.875H152.835V27.175H151.172C151.08 27.175 150.979 27.175 150.872 27.175C150.779 27.175 150.687 27.175 150.594 27.175L146.945 33.875H143.364ZM149.971 24.225H152.835V19.05H150.017C149.539 19.05 149.093 19.15 148.677 19.35C148.277 19.5333 147.953 19.8167 147.707 20.2C147.476 20.5667 147.36 21.0333 147.36 21.6C147.36 22.1667 147.468 22.65 147.684 23.05C147.899 23.4333 148.207 23.725 148.608 23.925C149.008 24.125 149.463 24.225 149.971 24.225Z" fill="white"/>
<path d="M176 33.85V16.1H191.344V33.85H187.688V19.125H179.656V33.85H176Z" fill="white"/>
<path d="M207.396 33.85V19.125H201.846L201.739 22.125C201.65 24.475 201.445 26.4167 201.125 27.95C200.805 29.4833 200.342 30.6917 199.738 31.575C199.133 32.4417 198.368 33.0583 197.443 33.425C196.535 33.775 195.441 33.95 194.161 33.95V30.975C194.819 30.975 195.388 30.8417 195.868 30.575C196.349 30.3083 196.749 29.825 197.069 29.125C197.407 28.425 197.674 27.4333 197.87 26.15C198.065 24.8667 198.199 23.2083 198.27 21.175L198.457 16.1H211.052V33.85H207.396Z" fill="white"/>
<path d="M215.169 33.85V16.1H218.825V29L228.004 16.1H231.42V33.85H227.764V21.1L218.691 33.85H215.169Z" fill="white"/>
<path d="M234.344 24.85C234.344 23.7667 234.549 22.7083 234.958 21.675C235.385 20.625 235.999 19.675 236.799 18.825C237.6 17.9583 238.578 17.275 239.735 16.775C240.891 16.2583 242.208 16 243.684 16C245.427 16 246.931 16.3583 248.194 17.075C249.475 17.7917 250.426 18.725 251.049 19.875L248.22 21.7C247.9 21.0333 247.482 20.5083 246.966 20.125C246.45 19.725 245.899 19.45 245.312 19.3C244.725 19.1333 244.147 19.05 243.577 19.05C242.652 19.05 241.843 19.225 241.149 19.575C240.473 19.925 239.904 20.3833 239.441 20.95C238.979 21.5167 238.632 22.15 238.401 22.85C238.187 23.55 238.08 24.25 238.08 24.95C238.08 25.7333 238.214 26.4917 238.481 27.225C238.747 27.9417 239.121 28.5833 239.601 29.15C240.099 29.7 240.687 30.1417 241.363 30.475C242.056 30.7917 242.812 30.95 243.631 30.95C244.218 30.95 244.814 30.8583 245.419 30.675C246.023 30.4917 246.584 30.2 247.1 29.8C247.616 29.4 248.016 28.8833 248.301 28.25L251.316 29.875C250.942 30.7583 250.329 31.5083 249.475 32.125C248.639 32.7417 247.696 33.2083 246.646 33.525C245.596 33.8417 244.556 34 243.524 34C242.172 34 240.936 33.7417 239.815 33.225C238.694 32.6917 237.725 31.9917 236.906 31.125C236.106 30.2417 235.474 29.2583 235.012 28.175C234.567 27.075 234.344 25.9667 234.344 24.85Z" fill="white"/>
<path d="M252.403 24.85C252.403 23.7667 252.608 22.7083 253.017 21.675C253.444 20.625 254.058 19.675 254.858 18.825C255.659 17.9583 256.637 17.275 257.794 16.775C258.95 16.2583 260.267 16 261.743 16C263.486 16 264.99 16.3583 266.253 17.075C267.534 17.7917 268.485 18.725 269.108 19.875L266.279 21.7C265.959 21.0333 265.541 20.5083 265.025 20.125C264.509 19.725 263.958 19.45 263.371 19.3C262.784 19.1333 262.206 19.05 261.636 19.05C260.711 19.05 259.902 19.225 259.208 19.575C258.532 19.925 257.963 20.3833 257.5 20.95C257.038 21.5167 256.691 22.15 256.46 22.85C256.246 23.55 256.139 24.25 256.139 24.95C256.139 25.7333 256.273 26.4917 256.54 27.225C256.806 27.9417 257.18 28.5833 257.66 29.15C258.158 29.7 258.746 30.1417 259.422 30.475C260.115 30.7917 260.871 30.95 261.69 30.95C262.277 30.95 262.873 30.8583 263.478 30.675C264.082 30.4917 264.643 30.2 265.159 29.8C265.675 29.4 266.075 28.8833 266.36 28.25L269.375 29.875C269.001 30.7583 268.388 31.5083 267.534 32.125C266.698 32.7417 265.755 33.2083 264.705 33.525C263.655 33.8417 262.615 34 261.583 34C260.231 34 258.995 33.7417 257.874 33.225C256.753 32.6917 255.784 31.9917 254.965 31.125C254.165 30.2417 253.533 29.2583 253.071 28.175C252.626 27.075 252.403 25.9667 252.403 24.85Z" fill="white"/>
<path d="M285 30.825V33.85H271.844V16.1H284.76V19.125H275.527V23.4H283.506V26.2H275.527V30.825H285Z" fill="white"/>
</svg>
