<svg width="19" height="19" viewBox="0 0 19 19" fill="none" xmlns="http://www.w3.org/2000/svg">
<path d="M3.65433 15.0417C3.28964 15.0417 2.98538 14.9198 2.74154 14.6759C2.49771 14.4321 2.37553 14.1276 2.375 13.7623V5.23768C2.375 4.87298 2.49718 4.56872 2.74154 4.32489C2.9859 4.08105 3.2899 3.95887 3.65354 3.95834H15.3465C15.7106 3.95834 16.0146 4.08052 16.2585 4.32489C16.5023 4.56925 16.6245 4.87351 16.625 5.23768V13.7631C16.625 14.1273 16.5028 14.4316 16.2585 14.6759C16.0141 14.9203 15.7101 15.0422 15.3465 15.0417H3.65433ZM9.5 9.59184L15.8333 5.45064L15.5895 4.75001L9.5 8.70834L3.4105 4.75001L3.16667 5.45064L9.5 9.59184Z" fill="white"/>
</svg>
