<svg width="40" height="40" viewBox="0 0 40 40" fill="none" xmlns="http://www.w3.org/2000/svg">
<path d="M39.9609 1.96174V31.5758C39.9609 31.9203 39.6813 32.2 39.3367 32.2H27.4656C27.5914 31.7938 27.6945 31.3766 27.7727 30.9516H38.7125V2.58596H30.7555V12.8758C30.7555 13.1071 30.6281 13.3188 30.4242 13.4274C30.332 13.4758 30.2312 13.5 30.1312 13.5C30.0086 13.5 29.8867 13.4641 29.7812 13.3922L25.1383 10.2485L20.6188 13.3094L20.4961 13.3922C20.4022 13.4558 20.2927 13.4927 20.1795 13.4989C20.0662 13.5051 19.9534 13.4803 19.8531 13.4274C19.7622 13.3788 19.6846 13.3085 19.6273 13.2227C19.5584 13.1202 19.5217 12.9994 19.5219 12.8758V2.58596H11.5648V19.475C11.1281 19.7258 10.7109 20.0055 10.3164 20.311V1.96174C10.3164 1.61721 10.5961 1.33752 10.9406 1.33752H39.3367C39.6813 1.33752 39.9609 1.61721 39.9609 1.96174ZM6.25547 26.7367H0.663281C0.31875 26.7367 0.0390625 27.0164 0.0390625 27.361C0.0390625 27.7055 0.31875 27.9852 0.663281 27.9852H6.25547C6.6 27.9852 6.87969 27.7055 6.87969 27.361C6.87969 27.0164 6.6 26.7367 6.25547 26.7367ZM6.25547 29.0196H4.29219C3.94766 29.0196 3.66797 29.2992 3.66797 29.6438C3.66797 29.9891 3.94766 30.268 4.29219 30.268H6.25547C6.6 30.268 6.87969 29.9891 6.87969 29.6438C6.87969 29.2992 6.6 29.0196 6.25547 29.0196ZM6.25547 31.3047H0.990625C0.645313 31.3047 0.366406 31.5844 0.366406 31.9289C0.366406 32.2742 0.645313 32.5539 0.990625 32.5539H6.25547C6.6 32.5539 6.87969 32.2742 6.87969 31.9289C6.87969 31.5844 6.6 31.3047 6.25547 31.3047ZM21.2992 29.1102H17.632V24.2446C17.632 23.9 17.3523 23.6203 17.0078 23.6203C16.6625 23.6203 16.3828 23.9 16.3828 24.2446V29.7344C16.3828 30.0797 16.6625 30.3586 17.0078 30.3586H21.2992C21.6445 30.3586 21.9242 30.0797 21.9242 29.7344C21.9242 29.3899 21.6445 29.1102 21.2992 29.1102ZM26.7023 28.9696C26.7023 34.3141 22.3531 38.6625 17.0078 38.6625C11.6633 38.6625 7.31484 34.3141 7.31484 28.9696C7.31484 24.2422 10.718 20.2946 15.2031 19.4461V18.086H13.9594C13.6148 18.086 13.3352 17.8063 13.3352 17.4617V15.0969C13.3352 14.7516 13.6148 14.4727 13.9594 14.4727H20.0555C20.4 14.4727 20.6797 14.7516 20.6797 15.0969V17.4617C20.6797 17.8063 20.4 18.086 20.0555 18.086H18.8141V19.4469C23.2992 20.2953 26.7023 24.2422 26.7023 28.9696ZM24.6688 28.9696C24.6688 24.7469 21.232 21.311 17.0078 21.311C12.7844 21.311 9.34844 24.7469 9.34844 28.9696C9.34844 33.193 12.7844 36.6289 17.0078 36.6289C21.232 36.6289 24.6688 33.193 24.6688 28.9696ZM6.25547 24.4516H2.79219C2.44688 24.4516 2.16719 24.7305 2.16719 25.0758C2.16719 25.4203 2.44688 25.7 2.79219 25.7H6.25547C6.6 25.7 6.87969 25.4203 6.87969 25.0758C6.87969 24.7305 6.6 24.4516 6.25547 24.4516Z" fill="#EE3321"/>
</svg>
