<svg width="40" height="40" viewBox="0 0 40 40" fill="none" xmlns="http://www.w3.org/2000/svg">
<g clip-path="url(#clip0_143_188)">
<path d="M40 20.0225L36.5766 15.563L37.3423 10.0225L32.1171 7.95039L30.045 2.72516L24.5045 3.49093L20 0.0224609L15.5405 3.44588L10 2.68012L7.92793 7.90534L2.7027 9.97742L3.46847 15.518L0 20.0225L3.42342 24.4819L2.65766 30.0225L7.88288 32.0945L9.95496 37.3198L15.4955 36.554L19.955 39.9774L24.4144 36.554L29.955 37.3198L32.027 32.0945L37.2523 29.9774L36.4865 24.4369L40 20.0225ZM18.3784 26.5089L11.7117 21.0135L13.1532 19.2567L18.1081 23.3107L26.5766 13.536L28.2883 15.0225L18.3784 26.5089Z" fill="#EE3321"/>
</g>
<defs>
<clipPath id="clip0_143_188">
<rect width="40" height="40" fill="white"/>
</clipPath>
</defs>
</svg>
