<svg width="40" height="40" viewBox="0 0 40 40" fill="none" xmlns="http://www.w3.org/2000/svg">
<g clip-path="url(#clip0_143_347)">
<path d="M20.135 30.6716C19.9202 30.6692 19.7149 30.5826 19.5632 30.4305C19.4114 30.2785 19.3253 30.073 19.3232 29.8582V15.9541C19.3237 15.8063 19.3645 15.6613 19.4411 15.5348C19.5177 15.4083 19.6272 15.305 19.7581 15.2361C19.8889 15.1671 20.036 15.135 20.1836 15.1432C20.3313 15.1515 20.4739 15.1998 20.5962 15.2829L30.7348 22.2341C30.8437 22.3087 30.9327 22.4086 30.9941 22.5253C31.0556 22.642 31.0878 22.7719 31.0878 22.9038C31.0878 23.0357 31.0556 23.1656 30.9941 23.2823C30.9327 23.399 30.8437 23.4989 30.7348 23.5735L20.5962 30.5263C20.4609 30.6206 20.3 30.6714 20.135 30.6716ZM38.9054 6.83272H18.892L19.7212 8.13736C19.8492 8.3269 19.9139 8.43746 19.9629 8.55592C20.0008 8.64437 20.0576 8.7881 20.0624 9.02029H37.8093V36.7873H10.0454V17.1846C9.30656 17.0449 8.5762 16.8635 7.85785 16.6412V37.8819C7.85785 38.4868 8.34748 38.9765 8.94926 38.9765H38.9054C39.1957 38.9765 39.4741 38.8611 39.6794 38.6559C39.8847 38.4506 40 38.1722 40 37.8819V7.92729C40 7.637 39.8847 7.35859 39.6794 7.15332C39.4741 6.94804 39.1957 6.83272 38.9054 6.83272ZM18.4798 7.90676L16.7645 5.19956L12.1129 11.4542L4.52201 10.287L5.32438 13.6434C5.32438 13.6386 5.32754 13.6323 5.33228 13.626C5.30695 13.7661 5.32117 13.9105 5.37335 14.043C5.83613 15.1534 11.9234 16.6396 13.4776 15.9936C15.0318 15.3476 19.2869 9.5652 18.8257 8.45484C18.7767 8.33322 18.6898 8.23055 18.4798 7.90676ZM11.8902 10.783L0 8.97448L8.26377 1.97744L19.0073 1.02502L11.8902 10.783ZM0.277986 9.45622L2.32971 16L3.6849 17.6537L3.42744 15.5435L0.277986 9.45622Z" fill="#EE3321"/>
</g>
<defs>
<clipPath id="clip0_143_347">
<rect width="40" height="40" fill="white"/>
</clipPath>
</defs>
</svg>
