<svg width="40" height="40" viewBox="0 0 40 40" fill="none" xmlns="http://www.w3.org/2000/svg">
<g clip-path="url(#clip0_143_269)">
<path d="M33.9103 12.3779C35.1926 14.7136 35.864 17.3354 35.8621 20C35.8621 20.2489 35.8428 20.4993 35.8317 20.7496C36.0699 20.7114 36.3106 20.6914 36.5517 20.6896C36.7759 20.6896 36.9952 20.7103 37.211 20.74C37.2214 20.4931 37.2414 20.2462 37.2414 20C37.2414 16.8565 36.3834 13.8007 34.7724 11.1234C34.5719 11.4802 34.3449 11.8214 34.0931 12.1441L33.9103 12.3779ZM13.3586 5.59653C15.3751 4.66121 17.5676 4.16609 19.7903 4.14412C19.96 3.66549 20.1703 3.20687 20.4214 2.77239C17.7243 2.71317 15.0503 3.28046 12.6097 4.42963C12.9142 4.78047 13.1665 5.1735 13.3586 5.59653ZM6.27793 12.0489L5.38897 10.8634C3.79675 13.4027 2.89857 16.3153 2.78414 19.3103H4.16345C4.26845 16.7541 4.99417 14.2619 6.27793 12.0489ZM30.8448 31.5689L31.2214 33.0751C32.2468 32.1955 33.1655 31.1986 33.9586 30.1048L33.0883 28.9448C32.4376 29.8981 31.6854 30.778 30.8448 31.5689ZM19.3103 20.6896H13.7931V25.9434L10.3448 24.2193L6.89655 25.9434V20.6896H1.37931V34.4827H3.23103C4.00759 32.8545 5.66552 31.7241 7.58621 31.7241C9.5069 31.7241 11.1648 32.8545 11.9414 34.4827H19.3103V20.6896ZM12.3586 35.862C12.391 36.0883 12.4138 36.3172 12.4138 36.5517C12.4138 36.7862 12.391 37.0151 12.3586 37.2414H19.3655C19.3331 37.0151 19.3103 36.7862 19.3103 36.5517C19.3103 36.3172 19.3331 36.0883 19.3655 35.862H12.3586ZM29.1166 30.3448H24.8276C24.0669 30.3448 23.4483 29.7262 23.4483 28.9655V27.5862C23.4483 26.8255 24.0669 26.2069 24.8276 26.2069H28.0821L27.8676 25.3496C27.8304 25.2004 27.7444 25.0679 27.6231 24.9732C27.5019 24.8786 27.3524 24.8273 27.1986 24.8276H20.6897V33.18C21.1379 32.7191 21.6741 32.3528 22.2663 32.1028C22.8586 31.8527 23.495 31.724 24.1379 31.7241C26.0586 31.7241 27.7166 32.8545 28.4931 34.4827H30.151L29.1166 30.3448ZM0 35.862V37.2414H2.81379C2.78138 37.0151 2.75862 36.7862 2.75862 36.5517C2.75862 36.3172 2.78138 36.0883 2.81379 35.862H0Z" fill="#EE3321"/>
<path d="M7.58695 33.1034C5.68557 33.1034 4.13867 34.6503 4.13867 36.5517C4.13867 38.4531 5.68557 40 7.58695 40C9.48833 40 11.0352 38.4531 11.0352 36.5517C11.0352 34.6503 9.48833 33.1034 7.58695 33.1034ZM7.58695 37.931C7.40327 37.9352 7.2206 37.9026 7.04969 37.8352C6.87877 37.7678 6.72305 37.6669 6.59166 37.5385C6.46026 37.4101 6.35585 37.2567 6.28455 37.0873C6.21325 36.918 6.1765 36.7362 6.17645 36.5524C6.17641 36.3687 6.21307 36.1868 6.28428 36.0174C6.3555 35.8481 6.45984 35.6946 6.59116 35.5662C6.72249 35.4377 6.87817 35.3367 7.04905 35.2692C7.21993 35.2017 7.40257 35.169 7.58626 35.1731C7.94665 35.1811 8.28959 35.3298 8.54169 35.5875C8.79378 35.8451 8.93498 36.1913 8.93507 36.5517C8.93516 36.9122 8.79413 37.2584 8.54217 37.5162C8.2902 37.774 7.94733 37.9229 7.58695 37.931ZM8.2766 23.7117L10.3456 22.6772L12.4145 23.7117V20.6897H8.2766V23.7117ZM24.1387 33.1034C22.2373 33.1034 20.6904 34.6503 20.6904 36.5517C20.6904 38.4531 22.2373 40 24.1387 40C26.0401 40 27.5869 38.4531 27.5869 36.5517C27.5869 34.6503 26.0401 33.1034 24.1387 33.1034ZM24.1387 37.931C23.955 37.9352 23.7723 37.9026 23.6014 37.8352C23.4305 37.7678 23.2748 37.6669 23.1434 37.5385C23.012 37.4101 22.9076 37.2567 22.8363 37.0873C22.765 36.918 22.7282 36.7362 22.7282 36.5524C22.7281 36.3687 22.7648 36.1868 22.836 36.0174C22.9072 35.8481 23.0116 35.6946 23.1429 35.5662C23.2742 35.4377 23.4299 35.3367 23.6008 35.2692C23.7717 35.2017 23.9543 35.169 24.138 35.1731C24.4984 35.1811 24.8413 35.3298 25.0934 35.5875C25.3455 35.8451 25.4867 36.1913 25.4868 36.5517C25.4869 36.9122 25.3459 37.2584 25.0939 37.5162C24.8419 37.774 24.4991 37.9229 24.1387 37.931ZM24.8283 28.9655H28.7725L28.4276 27.5862H24.8283V28.9655ZM28.9663 36.5517C28.9663 36.7862 28.9435 37.0152 28.9111 37.2414H30.3456V35.8621H28.9111C28.9435 36.0883 28.9663 36.3172 28.9663 36.5517ZM8.96626 13.3331L11.7249 9.65448C12.1697 9.06276 12.4145 8.32759 12.4145 7.58621C12.4145 5.68483 10.8676 4.13793 8.96626 4.13793C7.06488 4.13793 5.51798 5.68483 5.51798 7.58621C5.51798 8.32759 5.76281 9.06276 6.20764 9.65448L8.96626 13.3331ZM8.96626 6.2069C9.14994 6.20274 9.3326 6.23533 9.50352 6.30274C9.67443 6.37015 9.83016 6.47103 9.96155 6.59945C10.0929 6.72787 10.1974 6.88125 10.2687 7.05058C10.34 7.21991 10.3767 7.40178 10.3768 7.58551C10.3768 7.76924 10.3401 7.95113 10.2689 8.12049C10.1977 8.28986 10.0934 8.44329 9.96204 8.57178C9.83071 8.70026 9.67504 8.80122 9.50416 8.86872C9.33328 8.93621 9.15063 8.96889 8.96695 8.96483C8.60656 8.95686 8.26361 8.80812 8.01152 8.55046C7.75943 8.29279 7.61822 7.94667 7.61813 7.5862C7.61804 7.22572 7.75907 6.87954 8.01104 6.62175C8.263 6.36396 8.60588 6.21505 8.96626 6.2069ZM36.5525 22.069C34.6511 22.069 33.1042 23.6159 33.1042 25.5172C33.1042 26.2586 33.349 26.9938 33.7938 27.5855L36.5525 31.2641L39.3111 27.5855C39.7559 26.9938 40.0007 26.2586 40.0007 25.5172C40.0007 23.6159 38.4538 22.069 36.5525 22.069ZM36.5525 26.8966C36.3688 26.9007 36.1861 26.8681 36.0152 26.8007C35.8443 26.7333 35.6886 26.6324 35.5572 26.504C35.4258 26.3756 35.3214 26.2222 35.2501 26.0529C35.1788 25.8835 35.142 25.7017 35.142 25.5179C35.1419 25.3342 35.1786 25.1523 35.2498 24.983C35.321 24.8136 35.4254 24.6602 35.5567 24.5317C35.688 24.4032 35.8437 24.3022 36.0146 24.2347C36.1854 24.1672 36.3681 24.1346 36.5518 24.1386C36.9122 24.1466 37.2551 24.2953 37.5072 24.553C37.7593 24.8107 37.9005 25.1568 37.9006 25.5173C37.9007 25.8777 37.7597 26.2239 37.5077 26.4817C37.2557 26.7395 36.9128 26.8884 36.5525 26.8966ZM27.5869 18.1945L33.0097 11.2917C33.9625 10.0757 34.4813 8.57591 34.4835 7.03103V6.89655C34.4835 3.09379 31.3897 0 27.5869 0C23.7842 0 20.6904 3.09379 20.6904 6.89655V7.03103C20.6904 8.56897 21.2138 10.0828 22.1642 11.2917L27.5869 18.1945ZM27.5869 2.06897C28.2209 2.06897 28.8487 2.19383 29.4344 2.43644C30.0201 2.67905 30.5523 3.03465 31.0006 3.48293C31.4489 3.93122 31.8044 4.46341 32.0471 5.04911C32.2897 5.63482 32.4145 6.26258 32.4145 6.89655C32.4145 7.53052 32.2897 8.15828 32.0471 8.74399C31.8044 9.3297 31.4489 9.86189 31.0006 10.3102C30.5523 10.7585 30.0201 11.1141 29.4344 11.3567C28.8487 11.5993 28.2209 11.7241 27.5869 11.7241C26.3066 11.7241 25.0787 11.2155 24.1733 10.3102C23.268 9.40482 22.7594 8.17691 22.7594 6.89655C22.7594 5.6162 23.268 4.38828 24.1733 3.48293C25.0787 2.57758 26.3066 2.06897 27.5869 2.06897ZM15.1732 16.5517H16.5525V17.931H15.1732V16.5517ZM17.9318 16.5517H19.3111V17.931H17.9318V16.5517ZM20.6904 16.5517H22.0697V17.931H20.6904V16.5517Z" fill="#EE3321"/>
</g>
<defs>
<clipPath id="clip0_143_269">
<rect width="40" height="40" fill="white"/>
</clipPath>
</defs>
</svg>
