<svg width="40" height="40" viewBox="0 0 40 40" fill="none" xmlns="http://www.w3.org/2000/svg">
<g clip-path="url(#clip0_143_196)">
<path d="M21.9958 18.6872C22.362 17.9169 22.8097 16.9405 23.1633 16.0575C23.4836 15.2615 23.1183 14.1709 22.4039 13.6952C17.806 10.6286 2.21028 1.79488 0.44567 21.6473C0.369495 22.5024 0.217859 22.5126 0.133109 21.6582C-0.165304 18.6693 -0.304363 12.0644 3.63831 8.50803C4.27573 7.93364 5.39892 7.10729 6.11722 6.6378C8.67317 4.96423 15.0877 2.08487 24.3132 7.00853C25.0711 7.4127 25.8105 7.094 25.9892 6.2545L26.6314 3.23293C26.8094 2.39343 27.3138 2.30868 27.7586 3.04327L35.3214 15.5576C35.7653 16.2922 35.445 17.0345 34.6055 17.2164L22.8326 19.7552C21.992 19.9365 21.6274 19.4623 21.9958 18.6872ZM33.764 34.2084C31.208 35.8797 24.7943 38.7535 15.568 33.8337C14.8101 33.4295 13.9891 33.7256 13.7109 34.5379L12.9297 36.8186C12.6514 37.631 12.1018 37.673 11.7023 36.9127L5.66317 25.4158C5.26358 24.6556 5.60572 23.8363 6.42736 23.5859L16.4076 20.5371C17.2285 20.2869 17.7082 20.7539 17.4795 21.5827C17.1875 22.6385 16.8979 23.6949 16.6104 24.7519C16.3857 25.5806 16.7729 26.6603 17.4973 27.1228C22.1498 30.0906 37.8979 38.6018 39.6126 19.0261C39.6872 18.171 39.8264 18.164 39.8994 19.0191C40.1576 22.0422 40.2134 28.7599 36.2436 32.3387C35.6056 32.9125 34.4831 33.7389 33.764 34.2084Z" fill="#EE3321"/>
</g>
<defs>
<clipPath id="clip0_143_196">
<rect width="40" height="40" fill="white"/>
</clipPath>
</defs>
</svg>
