<svg width="40" height="40" viewBox="0 0 40 40" fill="none" xmlns="http://www.w3.org/2000/svg">
<g clip-path="url(#clip0_143_241)">
<path d="M14.7673 13.0243C13.8058 13.0243 13.0234 13.8066 13.0234 14.7682C13.0234 15.7298 13.8058 16.5121 14.7673 16.5121C15.7289 16.5121 16.5112 15.7297 16.5112 14.7682C16.5112 13.8066 15.7289 13.0243 14.7673 13.0243ZM25.2308 23.4877C24.2692 23.4877 23.4869 24.2701 23.4869 25.2316C23.4869 26.1932 24.2692 26.9755 25.2308 26.9755C26.1923 26.9755 26.9747 26.1932 26.9747 25.2316C26.9747 24.2701 26.1923 23.4877 25.2308 23.4877Z" fill="#EE3321"/>
<path d="M39.6213 19.0799L36.227 15.6521L37.4527 10.9865C37.635 10.2926 37.2244 9.58146 36.5324 9.39247L31.879 8.12115L30.6077 3.46772C30.4186 2.77577 29.7077 2.36506 29.0137 2.54741L24.3481 3.77319L20.9203 0.378818C20.4105 -0.125947 19.5893 -0.125947 19.0796 0.378818L15.6519 3.77319L10.9862 2.54748C10.2922 2.36514 9.58129 2.77584 9.39223 3.4678L8.1209 8.12122L3.46747 9.39255C2.77552 9.58161 2.3649 10.2928 2.54716 10.9865L3.77286 15.6522L0.378573 19.0799C-0.126191 19.5896 -0.126191 20.4108 0.378573 20.9205L3.77294 24.3482L2.54724 29.0139C2.36498 29.7077 2.7756 30.4189 3.46755 30.6079L8.12098 31.8792L9.39231 36.5326C9.58137 37.2246 10.2922 37.6353 10.9863 37.453L15.652 36.2273L19.0797 39.6216C19.3244 39.8645 19.6553 40.0007 20 40.0002C20.3328 40.0002 20.6655 39.8741 20.9203 39.6216L24.3481 36.2273L29.0138 37.453C29.7077 37.6351 30.4187 37.2246 30.6077 36.5326L31.8791 31.8792L36.5325 30.6079C37.2244 30.4188 37.6351 29.7077 37.4528 29.0139L36.2271 24.3482L39.6214 20.9205C40.1261 20.4108 40.1261 19.5896 39.6213 19.0799ZM10.4086 14.7685C10.4086 12.3645 12.3643 10.4087 14.7683 10.4087C17.1723 10.4087 19.1281 12.3645 19.1281 14.7685C19.1281 17.1725 17.1723 19.1282 14.7683 19.1282C12.3643 19.1282 10.4086 17.1725 10.4086 14.7685ZM14.8211 27.0286C14.6998 27.1502 14.5557 27.2467 14.397 27.3124C14.2383 27.3782 14.0681 27.4119 13.8964 27.4117C13.7246 27.412 13.5544 27.3782 13.3957 27.3125C13.237 27.2467 13.0929 27.1503 12.9716 27.0286C12.4608 26.5178 12.4608 25.6897 12.9716 25.1789L25.1788 12.9717C25.6895 12.4609 26.5177 12.4609 27.0285 12.9717C27.5393 13.4825 27.5393 14.3106 27.0285 14.8214L14.8211 27.0286ZM25.2317 29.5917C22.8277 29.5917 20.872 27.6359 20.872 25.2319C20.872 22.8279 22.8277 20.8721 25.2317 20.8721C27.6357 20.8721 29.5915 22.8279 29.5915 25.2319C29.5915 27.6359 27.6357 29.5917 25.2317 29.5917Z" fill="#EE3321"/>
</g>
<defs>
<clipPath id="clip0_143_241">
<rect width="40" height="40" fill="white"/>
</clipPath>
</defs>
</svg>
