<svg width="40" height="40" viewBox="0 0 40 40" fill="none" xmlns="http://www.w3.org/2000/svg">
<path d="M29.4257 11.8112C29.2353 11.5158 28.9826 11.2657 28.6853 11.0783C28.6819 10.5035 28.6384 9.92962 28.555 9.36088C28.6232 8.53465 28.8617 3.98514 26.0781 1.93392C24.3612 0.668673 22.4494 0 20.5495 0C19.0054 0 17.5348 0.438828 16.4085 1.2356C15.3941 1.95332 14.8354 2.73399 14.5397 3.28353C13.665 3.31445 11.8528 3.67112 11.0512 5.98183C10.2929 8.16755 10.9052 9.51789 11.3556 10.1437C11.3299 10.4546 11.3163 10.7663 11.3147 11.0781C11.0174 11.2655 10.7647 11.5157 10.5743 11.811C10.0729 12.5849 9.98765 13.6227 10.3207 14.8962C10.9434 17.2774 12.3966 17.8015 13.172 17.9067C13.6496 18.8616 14.6993 20.8131 15.7497 21.7936C16.1693 22.1852 16.7148 22.5157 17.3711 22.7763C18.2086 23.1086 19.0932 23.2771 20 23.2771C20.9068 23.2771 21.7914 23.1086 22.6289 22.7763C23.2852 22.5157 23.8307 22.1852 24.2503 21.7936C25.3007 20.8131 26.3504 18.8616 26.828 17.9067C27.6032 17.8015 29.0564 17.2772 29.6793 14.896C30.0124 13.6229 29.9271 12.5849 29.4257 11.8112ZM27.9088 14.4332C27.5293 15.8847 26.8509 16.1014 26.4801 16.1014C26.4538 16.1014 26.434 16.1 26.4223 16.099C25.9988 15.992 25.6072 16.2145 25.422 16.6129C25.0597 17.3917 23.9182 19.6005 23.0017 20.456C22.7497 20.6912 22.3971 20.8998 21.9539 21.0757C20.7102 21.5692 19.2896 21.5692 18.0461 21.0757C17.6029 20.8998 17.2503 20.6912 16.9983 20.456C16.0818 19.6005 14.9403 17.3917 14.578 16.6129C14.4239 16.2817 14.1276 16.0725 13.7885 16.0725C13.7173 16.0726 13.6465 16.0816 13.5775 16.0992C13.5583 16.1009 13.5391 16.1017 13.5199 16.1016C13.1493 16.1016 12.4709 15.8847 12.0912 14.4336C11.9044 13.7193 11.906 13.1497 12.0956 12.8298C12.2059 12.6439 12.3626 12.5813 12.4138 12.5652C12.9048 12.5119 13.2005 12.0821 13.1595 11.5867C13.1586 11.5746 13.1266 11.1493 13.1672 10.5021C13.7969 10.2314 14.803 9.6976 15.6512 8.78151C16.0829 8.31505 16.3988 7.74355 16.6237 7.21926C17.2369 7.71994 18.1051 8.30828 19.2537 8.81664C21.2211 9.68735 25.153 10.1015 26.8128 10.2429C26.8814 11.0329 26.8414 11.572 26.8403 11.5849C26.7971 12.0817 27.0934 12.5119 27.586 12.5652C27.6372 12.5813 27.7939 12.644 27.9042 12.8298C28.094 13.1495 28.0956 13.7192 27.9088 14.4332ZM33.7764 26.6536L25.7767 23.4539C25.6627 23.4083 25.5408 23.3862 25.4181 23.3887C25.2954 23.3912 25.1745 23.4184 25.0625 23.4687C24.9505 23.5189 24.8498 23.5911 24.7663 23.6811C24.6829 23.771 24.6183 23.8769 24.5766 23.9923L22.5656 29.5521L22.1674 28.4073L22.801 26.8586C22.8577 26.7196 22.8794 26.5688 22.8641 26.4195C22.8489 26.2701 22.7971 26.1269 22.7135 26.0022C22.6298 25.8776 22.5168 25.7755 22.3844 25.7048C22.2519 25.6341 22.1042 25.5971 21.9541 25.597H18.0461C17.896 25.597 17.7481 25.6339 17.6156 25.7045C17.4831 25.7752 17.37 25.8773 17.2863 26.002C17.2026 26.1267 17.1509 26.27 17.1357 26.4194C17.1205 26.5688 17.1423 26.7196 17.1992 26.8586L17.8328 28.4073L17.4346 29.5521L15.4236 23.9923C15.3819 23.8768 15.3174 23.771 15.234 23.681C15.1505 23.591 15.0498 23.5187 14.9378 23.4685C14.8258 23.4182 14.7048 23.391 14.5821 23.3885C14.4594 23.386 14.3374 23.4083 14.2235 23.4539L6.22357 26.6536C3.76701 27.6361 2.17969 29.9809 2.17969 32.6268V39.085C2.17969 39.3277 2.27609 39.5604 2.44768 39.732C2.61928 39.9036 2.85201 40 3.09468 40H36.9053C37.148 40 37.3807 39.9036 37.5523 39.732C37.7239 39.5604 37.8203 39.3277 37.8203 39.085V32.6268C37.8203 29.9809 36.233 27.6363 33.7764 26.6536ZM33.4985 35.2669C33.4985 35.5096 33.4021 35.7423 33.2305 35.9139C33.0589 36.0855 32.8261 36.1819 32.5835 36.1819H26.4402C26.1976 36.1819 25.9648 36.0855 25.7932 35.9139C25.6217 35.7423 25.5252 35.5096 25.5252 35.2669V32.414C25.5252 32.1713 25.6217 31.9386 25.7932 31.767C25.9648 31.5954 26.1976 31.499 26.4402 31.499H32.5835C32.8261 31.499 33.0589 31.5954 33.2305 31.767C33.4021 31.9386 33.4985 32.1713 33.4985 32.414V35.2669Z" fill="#EE3321"/>
</svg>
