<svg width="40" height="40" viewBox="0 0 40 40" fill="none" xmlns="http://www.w3.org/2000/svg">
<path d="M33.4375 28.125C34.8182 28.125 35.9375 27.0057 35.9375 25.625C35.9375 24.2443 34.8182 23.125 33.4375 23.125C32.0568 23.125 30.9375 24.2443 30.9375 25.625C30.9375 27.0057 32.0568 28.125 33.4375 28.125Z" fill="#EE3321"/>
<path d="M34.0625 21.5625C34.2283 21.5625 34.3872 21.4967 34.5044 21.3794C34.6217 21.2622 34.6875 21.1033 34.6875 20.9375C34.6875 20.7717 34.6217 20.6128 34.5044 20.4956C34.3872 20.3783 34.2283 20.3125 34.0625 20.3125H32.8125C32.6467 20.3125 32.4878 20.3783 32.3706 20.4956C32.2534 20.6128 32.1875 20.7717 32.1875 20.9375C32.1875 21.1033 32.2534 21.2622 32.3706 21.3794C32.4878 21.4967 32.6467 21.5625 32.8125 21.5625H34.0625ZM14.0625 10.625C11.9611 10.625 9.90684 11.2481 8.15957 12.4156C6.4123 13.5831 5.05047 15.2425 4.24628 17.184C3.4421 19.1255 3.23169 21.2618 3.64166 23.3228C4.05163 25.3839 5.06356 27.2771 6.5495 28.763C8.03543 30.2489 9.92862 31.2609 11.9897 31.6708C14.0507 32.0808 16.1871 31.8704 18.1285 31.0662C20.07 30.262 21.7294 28.9002 22.8969 27.1529C24.0644 25.4057 24.6875 23.3514 24.6875 21.25C24.6844 18.433 23.5639 15.7324 21.572 13.7405C19.5802 11.7486 16.8795 10.6281 14.0625 10.625ZM14.0625 30.625C12.2083 30.625 10.3957 30.0752 8.85403 29.045C7.31232 28.0149 6.11071 26.5507 5.40113 24.8377C4.69156 23.1246 4.50591 21.2396 4.86764 19.421C5.22938 17.6025 6.12226 15.932 7.43338 14.6209C8.7445 13.3098 10.415 12.4169 12.2335 12.0551C14.0521 11.6934 15.9371 11.8791 17.6502 12.5886C19.3632 13.2982 20.8274 14.4998 21.8575 16.0415C22.8877 17.5832 23.4375 19.3958 23.4375 21.25C23.4347 23.7355 22.4461 26.1185 20.6885 27.876C18.931 29.6336 16.548 30.6222 14.0625 30.625Z" fill="#EE3321"/>
<path d="M14.0625 27.5C13.8967 27.5 13.7378 27.5658 13.6206 27.6831C13.5033 27.8003 13.4375 27.9592 13.4375 28.125V28.75C13.4375 28.9158 13.5033 29.0747 13.6206 29.1919C13.7378 29.3092 13.8967 29.375 14.0625 29.375C14.2283 29.375 14.3872 29.3092 14.5044 29.1919C14.6217 29.0747 14.6875 28.9158 14.6875 28.75V28.125C14.6875 27.9592 14.6217 27.8003 14.5044 27.6831C14.3872 27.5658 14.2283 27.5 14.0625 27.5ZM14.0625 13.125C13.8967 13.125 13.7378 13.1908 13.6206 13.3081C13.5033 13.4253 13.4375 13.5842 13.4375 13.75V14.375C13.4375 14.5408 13.5033 14.6997 13.6206 14.8169C13.7378 14.9342 13.8967 15 14.0625 15C14.2283 15 14.3872 14.9342 14.5044 14.8169C14.6217 14.6997 14.6875 14.5408 14.6875 14.375V13.75C14.6875 13.5842 14.6217 13.4253 14.5044 13.3081C14.3872 13.1908 14.2283 13.125 14.0625 13.125ZM7.1875 20.625H6.5625C6.39674 20.625 6.23777 20.6908 6.12056 20.8081C6.00335 20.9253 5.9375 21.0842 5.9375 21.25C5.9375 21.4158 6.00335 21.5747 6.12056 21.6919C6.23777 21.8092 6.39674 21.875 6.5625 21.875H7.1875C7.35326 21.875 7.51223 21.8092 7.62944 21.6919C7.74665 21.5747 7.8125 21.4158 7.8125 21.25C7.8125 21.0842 7.74665 20.9253 7.62944 20.8081C7.51223 20.6908 7.35326 20.625 7.1875 20.625ZM20.3125 21.25C20.3125 21.4158 20.3783 21.5747 20.4956 21.6919C20.6128 21.8092 20.7717 21.875 20.9375 21.875H21.5625C21.7283 21.875 21.8872 21.8092 22.0044 21.6919C22.1217 21.5747 22.1875 21.4158 22.1875 21.25C22.1875 21.0842 22.1217 20.9253 22.0044 20.8081C21.8872 20.6908 21.7283 20.625 21.5625 20.625H20.9375C20.7717 20.625 20.6128 20.6908 20.4956 20.8081C20.3783 20.9253 20.3125 21.0842 20.3125 21.25ZM9.20094 15.5047C9.14328 15.445 9.07432 15.3974 8.99807 15.3646C8.92181 15.3319 8.8398 15.3146 8.75681 15.3139C8.67383 15.3132 8.59153 15.329 8.51472 15.3604C8.43791 15.3918 8.36812 15.4383 8.30944 15.4969C8.25076 15.5556 8.20435 15.6254 8.17292 15.7022C8.1415 15.779 8.12568 15.8613 8.12641 15.9443C8.12713 16.0273 8.14437 16.1093 8.17712 16.1856C8.20988 16.2618 8.25749 16.3308 8.31719 16.3884L8.75938 16.8303C8.87764 16.9455 9.03619 17.0099 9.20125 17.0099C9.36631 17.0099 9.52486 16.9455 9.64313 16.8303C9.76029 16.7131 9.82612 16.5542 9.82612 16.3884C9.82612 16.2227 9.76029 16.0638 9.64313 15.9466L9.20094 15.5047ZM19.3656 25.6697C19.308 25.61 19.239 25.5624 19.1628 25.5296C19.0865 25.4969 19.0045 25.4796 18.9215 25.4789C18.8385 25.4782 18.7562 25.494 18.6794 25.5254C18.6026 25.5569 18.5328 25.6033 18.4741 25.6619C18.4154 25.7206 18.369 25.7904 18.3376 25.8672C18.3062 25.944 18.2904 26.0263 18.2911 26.1093C18.2918 26.1923 18.3091 26.2743 18.3418 26.3506C18.3746 26.4268 18.4222 26.4958 18.4819 26.5534L18.9241 26.9953C19.0423 27.1105 19.2009 27.175 19.3659 27.175C19.531 27.175 19.6896 27.1105 19.8078 26.9953C19.925 26.8781 19.9908 26.7192 19.9908 26.5534C19.9908 26.3877 19.925 26.2288 19.8078 26.1116L19.3656 25.6697ZM18.9241 15.5047L18.4819 15.9466C18.3647 16.0638 18.2989 16.2227 18.2989 16.3884C18.2989 16.5542 18.3647 16.7131 18.4819 16.8303C18.6001 16.9455 18.7587 17.0099 18.9237 17.0099C19.0888 17.0099 19.2474 16.9455 19.3656 16.8303L19.8078 16.3884C19.8675 16.3308 19.9151 16.2618 19.9479 16.1856C19.9806 16.1093 19.9979 16.0273 19.9986 15.9443C19.9993 15.8613 19.9835 15.779 19.9521 15.7022C19.9206 15.6254 19.8742 15.5556 19.8156 15.4969C19.7569 15.4383 19.6871 15.3918 19.6103 15.3604C19.5335 15.329 19.4512 15.3132 19.3682 15.3139C19.2852 15.3146 19.2032 15.3319 19.1269 15.3646C19.0507 15.3974 18.9817 15.445 18.9241 15.5047ZM8.75938 25.6697L8.31719 26.1116C8.20002 26.2288 8.1342 26.3877 8.1342 26.5534C8.1342 26.7192 8.20002 26.8781 8.31719 26.9953C8.43526 27.1108 8.59388 27.1755 8.75906 27.1755C8.92425 27.1755 9.08286 27.1108 9.20094 26.9953L9.64313 26.5534C9.70282 26.4958 9.75043 26.4268 9.78319 26.3506C9.81594 26.2743 9.83319 26.1923 9.83391 26.1093C9.83463 26.0263 9.81881 25.944 9.78739 25.8672C9.75596 25.7904 9.70955 25.7206 9.65087 25.6619C9.59219 25.6033 9.52241 25.5569 9.4456 25.5254C9.36879 25.494 9.28649 25.4782 9.2035 25.4789C9.12051 25.4796 9.0385 25.4969 8.96225 25.5296C8.88599 25.5624 8.81703 25.61 8.75938 25.6697ZM14.0625 17.8125C13.8967 17.8125 13.7378 17.8783 13.6206 17.9956C13.5033 18.1128 13.4375 18.2717 13.4375 18.4375V21.5625C13.4375 21.7283 13.5033 21.8872 13.6206 22.0044C13.7378 22.1217 13.8967 22.1875 14.0625 22.1875C14.2283 22.1875 14.3872 22.1217 14.5044 22.0044C14.6217 21.8872 14.6875 21.7283 14.6875 21.5625V18.4375C14.6875 18.2717 14.6217 18.1128 14.5044 17.9956C14.3872 17.8783 14.2283 17.8125 14.0625 17.8125Z" fill="#EE3321"/>
<path d="M14.0625 24.6875C14.4077 24.6875 14.6875 24.4077 14.6875 24.0625C14.6875 23.7173 14.4077 23.4375 14.0625 23.4375C13.7173 23.4375 13.4375 23.7173 13.4375 24.0625C13.4375 24.4077 13.7173 24.6875 14.0625 24.6875Z" fill="#EE3321"/>
<path d="M33.0703 13.9813C33.0117 13.909 32.9376 13.8508 32.8536 13.8108C32.7696 13.7708 32.6777 13.75 32.5847 13.75H30C29.8342 13.75 29.6753 13.8158 29.5581 13.9331C29.4408 14.0503 29.375 14.2092 29.375 14.375V18.125C29.375 18.2908 29.4408 18.4497 29.5581 18.5669C29.6753 18.6842 29.8342 18.75 30 18.75H35.625C35.7421 18.7477 35.8562 18.7128 35.9546 18.6493C36.053 18.5858 36.1318 18.4962 36.1822 18.3905C36.2326 18.2848 36.2526 18.1671 36.24 18.0507C36.2273 17.9343 36.1825 17.8237 36.1106 17.7313L33.0703 13.9813Z" fill="#EE3321"/>
<path d="M39.3734 17.3781L34.8387 12.0344C34.6211 11.7971 34.3583 11.6055 34.0658 11.4708C33.7733 11.3362 33.4568 11.2611 33.135 11.25H28.125V11.1197C28.125 9.13281 27.1034 8.125 25.0887 8.125H3.03625C1.02156 8.125 0 9.13281 0 11.1197V24.8869C0.00190182 25.2498 0.147671 25.5971 0.405327 25.8526C0.662983 26.1082 1.01148 26.2511 1.37437 26.25H3.29531C2.54691 24.6385 2.16971 22.8796 2.19152 21.103C2.21333 19.3263 2.6336 17.5772 3.42135 15.9846C4.20909 14.392 5.34423 12.9965 6.74307 11.9009C8.14191 10.8054 9.76879 10.0378 11.5038 9.65463C13.2388 9.2715 15.0376 9.28264 16.7677 9.68723C18.4978 10.0918 20.1151 10.8795 21.5002 11.9923C22.8854 13.1051 24.0032 14.5145 24.7711 16.1168C25.5391 17.719 25.9377 19.4732 25.9375 21.25C25.9387 22.9777 25.5605 24.6845 24.8297 26.25H29.4281C29.3572 25.8364 29.3572 25.4136 29.4281 25H28.125V12.5H33.135C33.4177 12.5232 33.6834 12.6446 33.8859 12.8431L38.4203 18.1869C38.6121 18.4472 38.7264 18.7563 38.75 19.0787V24.8922C38.7477 24.9228 38.7334 24.9512 38.7102 24.9714C38.687 24.9915 38.6569 25.0017 38.6262 24.9997H37.4469C37.5178 25.4133 37.5178 25.836 37.4469 26.2497H38.6262C38.9883 26.2514 39.3362 26.1095 39.5937 25.8551C39.8512 25.6007 39.9974 25.2545 40 24.8925V19.0791C39.9743 18.4604 39.7551 17.8657 39.3734 17.3781Z" fill="#EE3321"/>
</svg>
