<svg width="40" height="40" viewBox="0 0 40 40" fill="none" xmlns="http://www.w3.org/2000/svg">
<path d="M33.3327 1.66663H6.66602C5.33993 1.66663 4.06816 2.19341 3.13048 3.13109C2.1928 4.06877 1.66602 5.34054 1.66602 6.66663V33.3333C1.66602 34.6594 2.1928 35.9311 3.13048 36.8688C4.06816 37.8065 5.33993 38.3333 6.66602 38.3333H33.3327C34.6588 38.3333 35.9305 37.8065 36.8682 36.8688C37.8059 35.9311 38.3327 34.6594 38.3327 33.3333V6.66663C38.3327 5.34054 37.8059 4.06877 36.8682 3.13109C35.9305 2.19341 34.6588 1.66663 33.3327 1.66663ZM14.9993 6.66663H18.3327V9.99996H14.9993V6.66663ZM8.33268 6.66663H11.666V9.99996H8.33268V6.66663ZM34.9994 33.3333C34.9994 33.7753 34.8238 34.1992 34.5112 34.5118C34.1986 34.8244 33.7747 35 33.3327 35H6.66602C6.22399 35 5.80007 34.8244 5.4875 34.5118C5.17494 34.1992 4.99935 33.7753 4.99935 33.3333V15H34.9994V33.3333ZM14.9993 30V20C15.0002 19.7159 15.0737 19.4367 15.2128 19.189C15.3519 18.9412 15.552 18.7332 15.7942 18.5846C16.0363 18.4359 16.3124 18.3517 16.5963 18.3398C16.8801 18.3279 17.1623 18.3888 17.416 18.5166L27.416 23.5166C27.689 23.6565 27.9181 23.869 28.0781 24.1307C28.2381 24.3924 28.3228 24.6932 28.3228 25C28.3228 25.3067 28.2381 25.6075 28.0781 25.8692C27.9181 26.1309 27.689 26.3434 27.416 26.4833L17.416 31.4833C17.1838 31.6023 16.9269 31.6651 16.666 31.6666C16.354 31.6676 16.0479 31.581 15.7827 31.4166C15.5425 31.2665 15.3445 31.0577 15.2075 30.8098C15.0704 30.5619 14.9988 30.2832 14.9993 30Z" fill="#EE3321"/>
</svg>
