<svg width="40" height="40" viewBox="0 0 40 40" fill="none" xmlns="http://www.w3.org/2000/svg">
<path d="M2.40039 28.8V28.8125C2.40853 29.7941 2.73805 30.746 3.33854 31.5226C3.93902 32.2992 4.7774 32.8576 5.72539 33.1125C6.16289 36.2875 8.86289 38.75 12.1629 38.75H20.0004C20.6879 38.75 21.2504 38.1875 21.2504 37.5C21.2504 36.8125 20.6879 36.25 20.0004 36.25H12.1629C10.2254 36.25 8.61289 34.875 8.22539 33.0625C10.0379 32.4875 11.3754 30.8 11.3754 28.8V21.6375C11.3754 19.1625 9.36289 17.15 6.88789 17.15C6.20039 17.15 5.55039 17.325 4.96289 17.6C5.60039 9.8625 12.1004 3.75 20.0004 3.75C24.0254 3.75 27.8129 5.325 30.6754 8.175C33.2254 10.7375 34.7504 14.05 35.0379 17.6125C34.4504 17.325 33.8004 17.15 33.1129 17.15C30.6379 17.15 28.6254 19.1625 28.6254 21.6375V28.8C28.6254 31.275 30.6379 33.2875 33.1129 33.2875C35.5754 33.2875 37.5879 31.275 37.6004 28.8125V18.85C37.6004 14.1625 35.7629 9.7375 32.4379 6.4C29.1004 3.075 24.6879 1.25 20.0004 1.25C10.3004 1.25 2.40039 9.1375 2.40039 18.85V28.8Z" fill="#EE3321"/>
</svg>
