<svg width="40" height="40" viewBox="0 0 40 40" fill="none" xmlns="http://www.w3.org/2000/svg">
<path fill-rule="evenodd" clip-rule="evenodd" d="M27.3586 13.367V20.4858C27.3586 20.5289 27.3235 20.564 27.2805 20.564H25.7245C25.6815 20.564 25.6464 20.5289 25.6464 20.4858V14.5282C25.6464 14.3831 25.5888 14.244 25.4862 14.1415C25.3837 14.0389 25.2446 13.9813 25.0995 13.9813H4.79578C4.65074 13.9813 4.51164 14.0389 4.40908 14.1415C4.30652 14.244 4.24891 14.3831 4.24891 14.5282V28.56C4.24891 28.6031 4.21383 28.6382 4.17078 28.6382H2.61492C2.57188 28.6382 2.5368 28.6031 2.5368 28.56V13.367C2.5368 13.324 2.57188 13.2889 2.61492 13.2889H27.2805C27.3235 13.2889 27.3586 13.324 27.3586 13.367ZM33.6073 33.8511C34.9581 33.8511 36.0532 34.9461 36.0532 36.2969C36.0532 37.6477 34.9581 38.7428 33.6073 38.7428C32.2566 38.7428 31.1615 37.6477 31.1615 36.2969C31.1615 34.9461 32.2566 33.8511 33.6073 33.8511ZM33.6073 35.6575C33.4378 35.6575 33.2751 35.7248 33.1552 35.8448C33.0353 35.9647 32.9679 36.1273 32.9679 36.2969C32.9679 36.4665 33.0353 36.6292 33.1552 36.7491C33.2751 36.869 33.4378 36.9364 33.6073 36.9364C33.7769 36.9364 33.9396 36.869 34.0595 36.7491C34.1794 36.6292 34.2468 36.4665 34.2468 36.2969C34.2468 36.1273 34.1794 35.9647 34.0595 35.8448C33.9396 35.7248 33.7769 35.6575 33.6073 35.6575ZM19.3092 33.8511C20.66 33.8511 21.7551 34.9461 21.7551 36.2969C21.7551 37.6477 20.66 38.7428 19.3092 38.7428C17.9584 38.7428 16.8634 37.6477 16.8634 36.2969C16.8634 34.9461 17.9584 33.8511 19.3092 33.8511ZM19.3092 35.6575C19.1396 35.6575 18.977 35.7248 18.8571 35.8448C18.7371 35.9647 18.6698 36.1273 18.6698 36.2969C18.6698 36.4665 18.7371 36.6292 18.8571 36.7491C18.977 36.869 19.1396 36.9364 19.3092 36.9364C19.4788 36.9364 19.6415 36.869 19.7614 36.7491C19.8813 36.6292 19.9487 36.4665 19.9487 36.2969C19.9487 36.1273 19.8813 35.9647 19.7614 35.8448C19.6415 35.7248 19.4788 35.6575 19.3092 35.6575ZM12.9964 33.8511C14.3472 33.8511 15.4423 34.9461 15.4423 36.2969C15.4423 37.6477 14.3472 38.7428 12.9964 38.7428C11.6456 38.7428 10.5505 37.6477 10.5505 36.2969C10.5506 34.9461 11.6456 33.8511 12.9964 33.8511ZM12.9964 35.6575C12.9118 35.6565 12.8279 35.6724 12.7495 35.7041C12.6711 35.7358 12.5998 35.7828 12.5396 35.8423C12.4795 35.9018 12.4318 35.9726 12.3992 36.0506C12.3666 36.1287 12.3498 36.2124 12.3498 36.297C12.3499 36.3816 12.3666 36.4653 12.3992 36.5434C12.4318 36.6214 12.4796 36.6922 12.5397 36.7517C12.5998 36.8112 12.6712 36.8581 12.7496 36.8898C12.828 36.9215 12.9119 36.9374 12.9965 36.9365C13.1649 36.9346 13.3257 36.8664 13.4441 36.7466C13.5625 36.6269 13.6289 36.4653 13.6289 36.2969C13.6289 36.1285 13.5625 35.9669 13.4441 35.8472C13.3256 35.7275 13.1648 35.6593 12.9964 35.6575ZM38.2066 35.3029H37.1078C37.0959 35.3029 37.0841 35.3056 37.0733 35.3108C37.0626 35.3161 37.0532 35.3237 37.0459 35.3332C37.0386 35.3426 37.0335 35.3537 37.0312 35.3654C37.0288 35.3771 37.0292 35.3892 37.0323 35.4007C37.185 35.9884 37.185 36.6054 37.0323 37.1931C37.0292 37.2046 37.0288 37.2168 37.0312 37.2285C37.0335 37.2402 37.0386 37.2512 37.0459 37.2607C37.0532 37.2701 37.0626 37.2778 37.0733 37.283C37.0841 37.2883 37.0959 37.291 37.1078 37.2909H38.2066C38.5059 37.2909 38.75 37.0468 38.75 36.7475V35.8463C38.75 35.5471 38.5057 35.3029 38.2066 35.3029ZM30.1069 35.3029H22.8096C22.7977 35.3029 22.7859 35.3056 22.7751 35.3108C22.7644 35.3161 22.755 35.3237 22.7477 35.3332C22.7404 35.3426 22.7353 35.3537 22.733 35.3654C22.7306 35.3771 22.731 35.3892 22.7341 35.4007C22.8868 35.9884 22.8868 36.6054 22.7341 37.1931C22.731 37.2046 22.7306 37.2168 22.733 37.2285C22.7353 37.2402 22.7404 37.2512 22.7477 37.2607C22.755 37.2701 22.7644 37.2778 22.7751 37.283C22.7859 37.2883 22.7977 37.291 22.8096 37.2909H30.1069C30.1188 37.291 30.1306 37.2883 30.1414 37.283C30.1521 37.2778 30.1615 37.2701 30.1688 37.2607C30.1761 37.2512 30.1811 37.2402 30.1835 37.2285C30.1859 37.2168 30.1855 37.2046 30.1824 37.1931C30.0297 36.6054 30.0297 35.9884 30.1824 35.4007C30.1855 35.3892 30.1859 35.3771 30.1835 35.3654C30.1811 35.3537 30.1761 35.3426 30.1688 35.3332C30.1615 35.3237 30.1521 35.3161 30.1414 35.3108C30.1306 35.3056 30.1188 35.3029 30.1069 35.3029ZM9.49602 35.3029H9.10219C8.80297 35.3029 8.55883 35.5472 8.55883 35.8463V36.7475C8.55883 37.0468 8.80297 37.2909 9.10219 37.2909H9.49602C9.50797 37.291 9.51979 37.2883 9.53053 37.283C9.54128 37.2778 9.55068 37.2702 9.55799 37.2607C9.5653 37.2512 9.57032 37.2402 9.57268 37.2285C9.57503 37.2168 9.57465 37.2046 9.57156 37.1931C9.41883 36.6054 9.41883 35.9884 9.57156 35.4007C9.57462 35.3892 9.57498 35.3771 9.57261 35.3654C9.57024 35.3537 9.56521 35.3427 9.55791 35.3332C9.5506 35.3238 9.54122 35.3161 9.53049 35.3109C9.51976 35.3056 9.50796 35.3029 9.49602 35.3029ZM30.5426 25.6328C30.4995 25.6328 30.4645 25.6679 30.4645 25.7109V34.1311C30.4645 34.1742 30.4995 34.2093 30.5426 34.2093H30.7099C30.7221 34.2094 30.7341 34.2067 30.745 34.2012C30.7559 34.1958 30.7653 34.1878 30.7724 34.1779C31.418 33.3157 32.4476 32.7574 33.6073 32.7574C34.7671 32.7574 35.7966 33.3157 36.4423 34.1779C36.4575 34.1982 36.4794 34.2093 36.5048 34.2093H37.9134C37.9565 34.2093 37.9916 34.1742 37.9916 34.1311V32.1309C37.9916 32.0879 37.9565 32.0528 37.9134 32.0528H37.0885C36.9435 32.0528 36.8044 31.9952 36.7018 31.8926C36.5993 31.79 36.5416 31.6509 36.5416 31.5059C36.5416 31.3609 36.5993 31.2218 36.7018 31.1192C36.8044 31.0166 36.9435 30.959 37.0885 30.959H37.9134C37.9565 30.959 37.9916 30.924 37.9916 30.8809V30.2176C37.9916 29.9986 37.936 29.8108 37.817 29.6269L35.5519 26.1287C35.3455 25.8101 35.0193 25.6326 34.6397 25.6326H30.5426V25.6328ZM31.5981 27.1658C31.5981 27.1228 31.6332 27.0877 31.6763 27.0877H35.0972C35.1245 27.0877 35.148 27.1004 35.1627 27.1233L36.8804 29.776C36.8881 29.7878 36.8924 29.8014 36.893 29.8155C36.8935 29.8295 36.8903 29.8435 36.8836 29.8558C36.8769 29.8682 36.8669 29.8785 36.8548 29.8856C36.8427 29.8928 36.8289 29.8966 36.8148 29.8965H31.6762C31.6331 29.8965 31.598 29.8615 31.598 29.8184V27.1658H31.5981ZM9.24867 21.6576C9.20563 21.6576 9.17055 21.6927 9.17055 21.7358V34.1311C9.17055 34.1742 9.20563 34.2093 9.24867 34.2093H10.099C10.1111 34.2094 10.1232 34.2067 10.134 34.2012C10.1449 34.1958 10.1543 34.1878 10.1615 34.1779C10.807 33.3156 11.8366 32.7574 12.9965 32.7574C14.3225 32.7574 15.4785 33.4871 16.0848 34.5667C16.0916 34.5788 16.1015 34.5888 16.1134 34.5958C16.1254 34.6028 16.139 34.6065 16.1529 34.6065C16.1667 34.6065 16.1803 34.6028 16.1923 34.5958C16.2043 34.5888 16.2141 34.5788 16.2209 34.5667C16.7545 33.6166 17.7137 32.9375 18.84 32.7882C18.8545 32.7864 18.8681 32.7805 18.8794 32.7712C18.8907 32.762 18.8992 32.7497 18.9039 32.7359C18.9085 32.722 18.9092 32.7072 18.9059 32.693C18.9025 32.6788 18.8952 32.6658 18.8848 32.6555C18.8337 32.6048 18.7932 32.5444 18.7656 32.4779C18.7379 32.4114 18.7237 32.34 18.7238 32.268V23.5985C18.7238 23.4534 18.7814 23.3143 18.884 23.2118C18.9866 23.1092 19.1257 23.0516 19.2707 23.0516C19.4157 23.0516 19.5548 23.1092 19.6574 23.2118C19.76 23.3143 19.8176 23.4534 19.8176 23.5985V32.268C19.8176 32.4158 19.759 32.5498 19.6637 32.6482C19.6536 32.6587 19.6466 32.6718 19.6435 32.686C19.6404 32.7003 19.6414 32.7151 19.6464 32.7289C19.6513 32.7426 19.66 32.7547 19.6714 32.7638C19.6828 32.7728 19.6966 32.7785 19.7111 32.7801C20.7049 32.8925 21.5741 33.4168 22.1441 34.1779C22.1593 34.1982 22.1812 34.2093 22.2066 34.2093H29.2927C29.3357 34.2093 29.3708 34.1742 29.3708 34.1311V21.7358C29.3708 21.6927 29.3357 21.6576 29.2927 21.6576H9.24867ZM11.4765 23.5985V32.268C11.4765 32.4131 11.5341 32.5522 11.6367 32.6547C11.7392 32.7573 11.8783 32.8149 12.0234 32.8149C12.1684 32.8149 12.3075 32.7573 12.4101 32.6547C12.5126 32.5522 12.5702 32.4131 12.5702 32.268V23.5985C12.5702 23.4534 12.5126 23.3143 12.4101 23.2118C12.3075 23.1092 12.1684 23.0516 12.0234 23.0516C11.8783 23.0516 11.7392 23.1092 11.6367 23.2118C11.5341 23.3143 11.4765 23.4534 11.4765 23.5985ZM25.971 23.5985V32.268C25.971 32.4131 26.0286 32.5522 26.1312 32.6547C26.2337 32.7573 26.3728 32.8149 26.5179 32.8149C26.6629 32.8149 26.802 32.7573 26.9046 32.6547C27.0071 32.5522 27.0648 32.4131 27.0648 32.268V23.5985C27.0648 23.4534 27.0071 23.3143 26.9046 23.2118C26.802 23.1092 26.6629 23.0516 26.5179 23.0516C26.3728 23.0516 26.2337 23.1092 26.1312 23.2118C26.0286 23.3143 25.971 23.4534 25.971 23.5985ZM23.5553 23.5985V32.268C23.5553 32.4131 23.6129 32.5522 23.7155 32.6547C23.818 32.7573 23.9571 32.8149 24.1022 32.8149C24.2472 32.8149 24.3863 32.7573 24.4889 32.6547C24.5914 32.5522 24.6491 32.4131 24.6491 32.268V23.5985C24.6491 23.4534 24.5914 23.3143 24.4889 23.2118C24.3863 23.1092 24.2472 23.0516 24.1022 23.0516C23.9571 23.0516 23.818 23.1092 23.7155 23.2118C23.6129 23.3143 23.5553 23.4534 23.5553 23.5985ZM21.1395 23.5985V32.268C21.1395 32.4131 21.1971 32.5522 21.2997 32.6547C21.4023 32.7573 21.5414 32.8149 21.6864 32.8149C21.8314 32.8149 21.9705 32.7573 22.0731 32.6547C22.1757 32.5522 22.2333 32.4131 22.2333 32.268V23.5985C22.2333 23.4534 22.1757 23.3143 22.0731 23.2118C21.9705 23.1092 21.8314 23.0516 21.6864 23.0516C21.5414 23.0516 21.4023 23.1092 21.2997 23.2118C21.1971 23.3143 21.1395 23.4534 21.1395 23.5985ZM16.308 23.5985V32.268C16.308 32.4131 16.3657 32.5522 16.4682 32.6547C16.5708 32.7573 16.7099 32.8149 16.8549 32.8149C17 32.8149 17.1391 32.7573 17.2416 32.6547C17.3442 32.5522 17.4018 32.4131 17.4018 32.268V23.5985C17.4018 23.4534 17.3442 23.3143 17.2416 23.2118C17.1391 23.1092 17 23.0516 16.8549 23.0516C16.7099 23.0516 16.5708 23.1092 16.4682 23.2118C16.3657 23.3143 16.308 23.4534 16.308 23.5985ZM13.8923 23.5985V32.268C13.8923 32.4131 13.9499 32.5522 14.0524 32.6547C14.155 32.7573 14.2941 32.8149 14.4391 32.8149C14.5842 32.8149 14.7233 32.7573 14.8258 32.6547C14.9284 32.5522 14.986 32.4131 14.986 32.268V23.5985C14.986 23.4534 14.9284 23.3143 14.8258 23.2118C14.7233 23.1092 14.5842 23.0516 14.4391 23.0516C14.2941 23.0516 14.155 23.1092 14.0524 23.2118C13.9499 23.3143 13.8923 23.4534 13.8923 23.5985ZM1.28586 10.0342L14.9054 1.27005C14.9179 1.26175 14.9326 1.25732 14.9477 1.25732C14.9627 1.25732 14.9774 1.26175 14.9899 1.27005L28.6095 10.0342C28.6324 10.049 28.6453 10.0725 28.6453 10.0999V12.1171C28.6453 12.1601 28.6102 12.1952 28.5672 12.1952H1.32812C1.28508 12.1952 1.25 12.1601 1.25 12.1171V10.0999C1.25 10.0725 1.26281 10.049 1.28586 10.0342ZM8.09445 8.21622C8.05141 8.21622 8.01633 8.2513 8.01633 8.29434V9.7013C8.01633 9.74434 8.05141 9.77942 8.09445 9.77942H21.8009C21.8439 9.77942 21.879 9.74434 21.879 9.7013V8.29434C21.879 8.2513 21.8439 8.21622 21.8009 8.21622H8.09445ZM7.99875 28.6382C8.0418 28.6382 8.07688 28.6031 8.07688 28.56V20.642C8.07688 20.599 8.11195 20.5639 8.155 20.5639H24.4747C24.5177 20.5639 24.5528 20.5288 24.5528 20.4858V15.1532C24.5528 15.1101 24.5177 15.075 24.4747 15.075H5.42078C5.37773 15.075 5.34266 15.1101 5.34266 15.1532V28.56C5.34266 28.6031 5.37773 28.6382 5.42078 28.6382H7.99875Z" fill="#EE3321"/>
</svg>
