<svg width="65" height="65" viewBox="0 0 65 65" fill="none" xmlns="http://www.w3.org/2000/svg">
<g clip-path="url(#clip0_235_268)">
<path d="M65 32.5366L59.4369 25.29L60.6813 16.2866L52.1903 12.9195L48.8232 4.42851L39.8198 5.67288L32.5 0.0366211L25.2534 5.59968L16.25 4.35532L12.8829 12.8463L4.39189 16.2134L5.63626 25.2168L0 32.5366L5.56306 39.7832L4.31869 48.7866L12.8097 52.1537L16.1768 60.6447L25.1802 59.4004L32.4268 64.9634L39.6734 59.4004L48.6768 60.6447L52.0439 52.1537L60.5349 48.7134L59.2905 39.71L65 32.5366ZM29.8649 43.0772L19.0315 34.147L21.3739 31.2923L29.4257 37.8801L43.1869 21.9961L45.9685 24.4116L29.8649 43.0772Z" fill="#1D1D1B"/>
</g>
<defs>
<clipPath id="clip0_235_268">
<rect width="65" height="65" fill="white"/>
</clipPath>
</defs>
</svg>
