<svg width="30" height="30" viewBox="0 0 30 30" fill="none" xmlns="http://www.w3.org/2000/svg">
<path d="M14.998 2.49987C21.9018 2.49987 27.498 8.09612 27.498 14.9999C27.498 21.9036 21.9018 27.4999 14.998 27.4999C8.0943 27.4999 2.49805 21.9036 2.49805 14.9999C2.49805 8.09612 8.0943 2.49987 14.998 2.49987ZM14.998 7.49987C14.6665 7.49987 14.3486 7.63157 14.1142 7.86599C13.8797 8.10041 13.748 8.41835 13.748 8.74987V14.9999C13.7481 15.3314 13.8799 15.6493 14.1143 15.8836L17.8643 19.6336C18.1 19.8613 18.4158 19.9873 18.7435 19.9845C19.0713 19.9816 19.3848 19.8502 19.6166 19.6184C19.8483 19.3866 19.9798 19.0731 19.9826 18.7454C19.9855 18.4176 19.8595 18.1019 19.6318 17.8661L16.248 14.4824V8.74987C16.248 8.41835 16.1164 8.10041 15.8819 7.86599C15.6475 7.63157 15.3296 7.49987 14.998 7.49987Z" fill="#EE3321"/>
</svg>
