<svg width="19" height="19" viewBox="0 0 19 19" fill="none" xmlns="http://www.w3.org/2000/svg">
<path d="M9.49967 1.58331C13.872 1.58331 17.4163 5.1276 17.4163 9.49998C17.4163 13.8724 13.872 17.4166 9.49967 17.4166C5.1273 17.4166 1.58301 13.8724 1.58301 9.49998C1.58301 5.1276 5.1273 1.58331 9.49967 1.58331ZM9.49967 4.74998C9.28971 4.74998 9.08835 4.83339 8.93988 4.98185C8.79142 5.13032 8.70801 5.33168 8.70801 5.54165V9.49998C8.70805 9.70992 8.79149 9.91126 8.93997 10.0597L11.315 12.4347C11.4643 12.5789 11.6643 12.6587 11.8718 12.6569C12.0794 12.6551 12.278 12.5718 12.4247 12.425C12.5715 12.2783 12.6548 12.0797 12.6566 11.8721C12.6584 11.6646 12.5786 11.4646 12.4344 11.3153L10.2913 9.17223V5.54165C10.2913 5.33168 10.2079 5.13032 10.0595 4.98185C9.911 4.83339 9.70964 4.74998 9.49967 4.74998Z" fill="white" fill-opacity="0.6"/>
</svg>
