<svg width="177" height="224" viewBox="0 0 177 224" fill="none" xmlns="http://www.w3.org/2000/svg">
<rect x="5.5" y="5.5" width="166" height="213" stroke="#C4C4C4" stroke-width="11"/>
<rect x="5" y="5" width="167" height="214" stroke="white" stroke-width="10"/>
<rect x="0.5" y="0.5" width="176" height="223" stroke="#C4C4C4"/>
<rect x="-0.5" y="-0.5" width="203" height="99" transform="matrix(4.37114e-08 -1 -1 -4.37114e-08 166 213)" fill="#D9D9D9" stroke="#1D1D1B"/>
<rect width="201.401" height="10" transform="matrix(4.37114e-08 -1 -1 -4.37114e-08 78 212.701)" fill="white"/>
<line y1="-0.5" x2="202" y2="-0.5" transform="matrix(-4.26921e-08 -1 -1 4.4755e-08 164 213)" stroke="#C4C4C4"/>
<line y1="-0.5" x2="202" y2="-0.5" transform="matrix(-4.26921e-08 -1 -1 4.4755e-08 162 213)" stroke="#C4C4C4"/>
<line y1="-0.5" x2="202" y2="-0.5" transform="matrix(-4.26921e-08 -1 -1 4.4755e-08 160 213)" stroke="#C4C4C4"/>
<line y1="-0.5" x2="202" y2="-0.5" transform="matrix(-4.26921e-08 -1 -1 4.4755e-08 158 213)" stroke="#C4C4C4"/>
<line y1="-0.5" x2="202" y2="-0.5" transform="matrix(-4.26921e-08 -1 -1 4.4755e-08 156 213)" stroke="#C4C4C4"/>
<line y1="-0.5" x2="202" y2="-0.5" transform="matrix(-4.26921e-08 -1 -1 4.4755e-08 154 213)" stroke="#C4C4C4"/>
<line y1="-0.5" x2="202" y2="-0.5" transform="matrix(-4.26921e-08 -1 -1 4.4755e-08 152 213)" stroke="#C4C4C4"/>
<line y1="-0.5" x2="202" y2="-0.5" transform="matrix(-4.26921e-08 -1 -1 4.4755e-08 150 213)" stroke="#C4C4C4"/>
<line y1="-0.5" x2="202" y2="-0.5" transform="matrix(-4.26921e-08 -1 -1 4.4755e-08 148 213)" stroke="#C4C4C4"/>
<line y1="-0.5" x2="202" y2="-0.5" transform="matrix(-4.26921e-08 -1 -1 4.4755e-08 146 213)" stroke="#C4C4C4"/>
<line y1="-0.5" x2="202" y2="-0.5" transform="matrix(-4.26921e-08 -1 -1 4.4755e-08 144 213)" stroke="#C4C4C4"/>
<line y1="-0.5" x2="202" y2="-0.5" transform="matrix(-4.26921e-08 -1 -1 4.4755e-08 142 213)" stroke="#C4C4C4"/>
<line y1="-0.5" x2="202" y2="-0.5" transform="matrix(-4.26921e-08 -1 -1 4.4755e-08 140 213)" stroke="#C4C4C4"/>
<line y1="-0.5" x2="202" y2="-0.5" transform="matrix(-4.26921e-08 -1 -1 4.4755e-08 138 213)" stroke="#C4C4C4"/>
<line y1="-0.5" x2="202" y2="-0.5" transform="matrix(-4.26921e-08 -1 -1 4.4755e-08 136 213)" stroke="#C4C4C4"/>
<line y1="-0.5" x2="202" y2="-0.5" transform="matrix(-4.26921e-08 -1 -1 4.4755e-08 134 213)" stroke="#C4C4C4"/>
<line y1="-0.5" x2="202" y2="-0.5" transform="matrix(-4.26921e-08 -1 -1 4.4755e-08 132 213)" stroke="#C4C4C4"/>
<line y1="-0.5" x2="202" y2="-0.5" transform="matrix(-4.26921e-08 -1 -1 4.4755e-08 130 213)" stroke="#C4C4C4"/>
<line y1="-0.5" x2="202" y2="-0.5" transform="matrix(-4.26921e-08 -1 -1 4.4755e-08 128 213)" stroke="#C4C4C4"/>
<line y1="-0.5" x2="202" y2="-0.5" transform="matrix(-4.26921e-08 -1 -1 4.4755e-08 126 213)" stroke="#C4C4C4"/>
<line y1="-0.5" x2="202" y2="-0.5" transform="matrix(-4.26921e-08 -1 -1 4.4755e-08 124 213)" stroke="#C4C4C4"/>
<line y1="-0.5" x2="202" y2="-0.5" transform="matrix(-4.26921e-08 -1 -1 4.4755e-08 122 213)" stroke="#C4C4C4"/>
<line y1="-0.5" x2="202" y2="-0.5" transform="matrix(-4.26921e-08 -1 -1 4.4755e-08 120 213)" stroke="#C4C4C4"/>
<line y1="-0.5" x2="202" y2="-0.5" transform="matrix(-4.26921e-08 -1 -1 4.4755e-08 118 213)" stroke="#C4C4C4"/>
<line y1="-0.5" x2="202" y2="-0.5" transform="matrix(-4.26921e-08 -1 -1 4.4755e-08 116 213)" stroke="#C4C4C4"/>
<line y1="-0.5" x2="202" y2="-0.5" transform="matrix(-4.26921e-08 -1 -1 4.4755e-08 114 213)" stroke="#C4C4C4"/>
<line y1="-0.5" x2="202" y2="-0.5" transform="matrix(-4.26921e-08 -1 -1 4.4755e-08 112 213)" stroke="#C4C4C4"/>
<line y1="-0.5" x2="202" y2="-0.5" transform="matrix(-4.26921e-08 -1 -1 4.4755e-08 110 213)" stroke="#C4C4C4"/>
<line y1="-0.5" x2="202" y2="-0.5" transform="matrix(-4.26921e-08 -1 -1 4.4755e-08 108 213)" stroke="#C4C4C4"/>
<line y1="-0.5" x2="202" y2="-0.5" transform="matrix(-4.26921e-08 -1 -1 4.4755e-08 106 213)" stroke="#C4C4C4"/>
<line y1="-0.5" x2="202" y2="-0.5" transform="matrix(-4.26921e-08 -1 -1 4.4755e-08 104 213)" stroke="#C4C4C4"/>
<line y1="-0.5" x2="202" y2="-0.5" transform="matrix(-4.26921e-08 -1 -1 4.4755e-08 102 213)" stroke="#C4C4C4"/>
<line y1="-0.5" x2="202" y2="-0.5" transform="matrix(-4.26921e-08 -1 -1 4.4755e-08 100 213)" stroke="#C4C4C4"/>
<line y1="-0.5" x2="202" y2="-0.5" transform="matrix(-4.26921e-08 -1 -1 4.4755e-08 98 213)" stroke="#C4C4C4"/>
<line y1="-0.5" x2="202" y2="-0.5" transform="matrix(-4.26921e-08 -1 -1 4.4755e-08 96 213)" stroke="#C4C4C4"/>
<line y1="-0.5" x2="202" y2="-0.5" transform="matrix(-4.26921e-08 -1 -1 4.4755e-08 94 213)" stroke="#C4C4C4"/>
<line y1="-0.5" x2="202" y2="-0.5" transform="matrix(-4.26921e-08 -1 -1 4.4755e-08 92 213)" stroke="#C4C4C4"/>
<line y1="-0.5" x2="202" y2="-0.5" transform="matrix(-4.26921e-08 -1 -1 4.4755e-08 90 213)" stroke="#C4C4C4"/>
<line y1="-0.5" x2="202" y2="-0.5" transform="matrix(-4.26921e-08 -1 -1 4.4755e-08 88 213)" stroke="#C4C4C4"/>
<line y1="-0.5" x2="202" y2="-0.5" transform="matrix(-4.26921e-08 -1 -1 4.4755e-08 86 213)" stroke="#C4C4C4"/>
<line y1="-0.5" x2="202" y2="-0.5" transform="matrix(-4.26921e-08 -1 -1 4.4755e-08 84 213)" stroke="#C4C4C4"/>
<line y1="-0.5" x2="202" y2="-0.5" transform="matrix(-4.26921e-08 -1 -1 4.4755e-08 82 213)" stroke="#C4C4C4"/>
<line y1="-0.5" x2="202" y2="-0.5" transform="matrix(-4.26921e-08 -1 -1 4.4755e-08 80 213)" stroke="#C4C4C4"/>
<line y1="-0.5" x2="202" y2="-0.5" transform="matrix(-4.26921e-08 -1 -1 4.4755e-08 78 213)" stroke="#C4C4C4"/>
<line y1="-0.5" x2="87" y2="-0.5" transform="matrix(1 1.13763e-07 6.71814e-08 -1 79 164.553)" stroke="#C4C4C4"/>
<line y1="-0.5" x2="87" y2="-0.5" transform="matrix(1 1.13763e-07 6.71814e-08 -1 79 112.501)" stroke="#C4C4C4"/>
<line y1="-0.5" x2="87" y2="-0.5" transform="matrix(1 1.13763e-07 6.71814e-08 -1 79 60.4491)" stroke="#C4C4C4"/>
</svg>
