<svg width="177" height="224" viewBox="0 0 177 224" fill="none" xmlns="http://www.w3.org/2000/svg">
<rect x="5.5" y="5.5" width="166" height="213" stroke="#C4C4C4" stroke-width="11"/>
<rect x="5" y="5" width="167" height="214" stroke="white" stroke-width="10"/>
<rect x="0.5" y="0.5" width="176" height="223" stroke="#C4C4C4"/>
<rect x="10.5" y="213.5" width="203" height="99" transform="rotate(-90 10.5 213.5)" fill="#D9D9D9" stroke="#1D1D1B"/>
<rect x="99" y="212.701" width="201.401" height="10" transform="rotate(-90 99 212.701)" fill="white"/>
<line x1="12.5" y1="213" x2="12.5" y2="11" stroke="#C4C4C4"/>
<line x1="14.5" y1="213" x2="14.5" y2="11" stroke="#C4C4C4"/>
<line x1="16.5" y1="213" x2="16.5" y2="11" stroke="#C4C4C4"/>
<line x1="18.5" y1="213" x2="18.5" y2="11" stroke="#C4C4C4"/>
<line x1="20.5" y1="213" x2="20.5" y2="11" stroke="#C4C4C4"/>
<line x1="22.5" y1="213" x2="22.5" y2="11" stroke="#C4C4C4"/>
<line x1="24.5" y1="213" x2="24.5" y2="11" stroke="#C4C4C4"/>
<line x1="26.5" y1="213" x2="26.5" y2="11" stroke="#C4C4C4"/>
<line x1="28.5" y1="213" x2="28.5" y2="11" stroke="#C4C4C4"/>
<line x1="30.5" y1="213" x2="30.5" y2="11" stroke="#C4C4C4"/>
<line x1="32.5" y1="213" x2="32.5" y2="11" stroke="#C4C4C4"/>
<line x1="34.5" y1="213" x2="34.5" y2="11" stroke="#C4C4C4"/>
<line x1="36.5" y1="213" x2="36.5" y2="11" stroke="#C4C4C4"/>
<line x1="38.5" y1="213" x2="38.5" y2="11" stroke="#C4C4C4"/>
<line x1="40.5" y1="213" x2="40.5" y2="11" stroke="#C4C4C4"/>
<line x1="42.5" y1="213" x2="42.5" y2="11" stroke="#C4C4C4"/>
<line x1="44.5" y1="213" x2="44.5" y2="11" stroke="#C4C4C4"/>
<line x1="46.5" y1="213" x2="46.5" y2="11" stroke="#C4C4C4"/>
<line x1="48.5" y1="213" x2="48.5" y2="11" stroke="#C4C4C4"/>
<line x1="50.5" y1="213" x2="50.5" y2="11" stroke="#C4C4C4"/>
<line x1="52.5" y1="213" x2="52.5" y2="11" stroke="#C4C4C4"/>
<line x1="54.5" y1="213" x2="54.5" y2="11" stroke="#C4C4C4"/>
<line x1="56.5" y1="213" x2="56.5" y2="11" stroke="#C4C4C4"/>
<line x1="58.5" y1="213" x2="58.5" y2="11" stroke="#C4C4C4"/>
<line x1="60.5" y1="213" x2="60.5" y2="11" stroke="#C4C4C4"/>
<line x1="62.5" y1="213" x2="62.5" y2="11" stroke="#C4C4C4"/>
<line x1="64.5" y1="213" x2="64.5" y2="11" stroke="#C4C4C4"/>
<line x1="66.5" y1="213" x2="66.5" y2="11" stroke="#C4C4C4"/>
<line x1="68.5" y1="213" x2="68.5" y2="11" stroke="#C4C4C4"/>
<line x1="70.5" y1="213" x2="70.5" y2="11" stroke="#C4C4C4"/>
<line x1="72.5" y1="213" x2="72.5" y2="11" stroke="#C4C4C4"/>
<line x1="74.5" y1="213" x2="74.5" y2="11" stroke="#C4C4C4"/>
<line x1="76.5" y1="213" x2="76.5" y2="11" stroke="#C4C4C4"/>
<line x1="78.5" y1="213" x2="78.5" y2="11" stroke="#C4C4C4"/>
<line x1="80.5" y1="213" x2="80.5" y2="11" stroke="#C4C4C4"/>
<line x1="82.5" y1="213" x2="82.5" y2="11" stroke="#C4C4C4"/>
<line x1="84.5" y1="213" x2="84.5" y2="11" stroke="#C4C4C4"/>
<line x1="86.5" y1="213" x2="86.5" y2="11" stroke="#C4C4C4"/>
<line x1="88.5" y1="213" x2="88.5" y2="11" stroke="#C4C4C4"/>
<line x1="90.5" y1="213" x2="90.5" y2="11" stroke="#C4C4C4"/>
<line x1="92.5" y1="213" x2="92.5" y2="11" stroke="#C4C4C4"/>
<line x1="94.5" y1="213" x2="94.5" y2="11" stroke="#C4C4C4"/>
<line x1="96.5" y1="213" x2="96.5" y2="11" stroke="#C4C4C4"/>
<line x1="98.5" y1="213" x2="98.5" y2="11" stroke="#C4C4C4"/>
<line x1="98" y1="165.053" x2="11" y2="165.053" stroke="#C4C4C4"/>
<line x1="98" y1="113.001" x2="11" y2="113.001" stroke="#C4C4C4"/>
<line x1="98" y1="60.9491" x2="11" y2="60.9491" stroke="#C4C4C4"/>
</svg>
