<svg width="177" height="224" viewBox="0 0 177 224" fill="none" xmlns="http://www.w3.org/2000/svg">
<rect x="5.5" y="5.5" width="166" height="213" stroke="#C4C4C4" stroke-width="11"/>
<rect x="5" y="5" width="167" height="214" stroke="white" stroke-width="10"/>
<rect x="0.5" y="0.5" width="176" height="223" stroke="#C4C4C4"/>
<rect x="-0.5" y="-0.5" width="203" height="70" transform="matrix(4.37114e-08 -1 -1 -4.37114e-08 123 213)" fill="#D9D9D9" stroke="#1D1D1B"/>
<rect width="201.401" height="6.3" transform="matrix(4.37114e-08 -1 -1 -4.37114e-08 59.9302 212.701)" fill="white"/>
<rect width="201.401" height="6.3" transform="matrix(4.37114e-08 -1 -1 -4.37114e-08 123 212.701)" fill="white"/>
<line y1="-0.05" x2="202" y2="-0.05" transform="matrix(-3.29731e-08 -1 -1 5.79468e-08 115 213)" stroke="#C4C4C4" stroke-width="0.1"/>
<line y1="-0.05" x2="202" y2="-0.05" transform="matrix(-2.75685e-08 -1 -1 6.93069e-08 114 213)" stroke="#C4C4C4" stroke-width="0.1"/>
<line y1="-0.05" x2="202" y2="-0.05" transform="matrix(-3.29731e-08 -1 -1 5.79468e-08 112 213)" stroke="#C4C4C4" stroke-width="0.1"/>
<line y1="-0.05" x2="202" y2="-0.05" transform="matrix(-2.90425e-08 -1 -1 6.57894e-08 111 213)" stroke="#C4C4C4" stroke-width="0.1"/>
<line y1="-0.05" x2="202" y2="-0.05" transform="matrix(-2.75685e-08 -1 -1 6.93069e-08 110 213)" stroke="#C4C4C4" stroke-width="0.1"/>
<line y1="-0.05" x2="202" y2="-0.05" transform="matrix(-2.75685e-08 -1 -1 6.93069e-08 108 213)" stroke="#C4C4C4" stroke-width="0.1"/>
<line y1="-0.05" x2="202" y2="-0.05" transform="matrix(-2.75685e-08 -1 -1 6.93069e-08 107 213)" stroke="#C4C4C4" stroke-width="0.1"/>
<line y1="-0.05" x2="202" y2="-0.05" transform="matrix(-2.75685e-08 -1 -1 6.93069e-08 106 213)" stroke="#C4C4C4" stroke-width="0.1"/>
<line y1="-0.05" x2="202" y2="-0.05" transform="matrix(-2.75685e-08 -1 -1 6.93069e-08 105 213)" stroke="#C4C4C4" stroke-width="0.1"/>
<line y1="-0.05" x2="202" y2="-0.05" transform="matrix(-2.75685e-08 -1 -1 6.93069e-08 103 213)" stroke="#C4C4C4" stroke-width="0.1"/>
<line y1="-0.05" x2="202" y2="-0.05" transform="matrix(-2.75685e-08 -1 -1 6.93069e-08 102 213)" stroke="#C4C4C4" stroke-width="0.1"/>
<line y1="-0.05" x2="202" y2="-0.05" transform="matrix(-2.75685e-08 -1 -1 6.93069e-08 101 213)" stroke="#C4C4C4" stroke-width="0.1"/>
<line y1="-0.05" x2="202" y2="-0.05" transform="matrix(-2.75685e-08 -1 -1 6.93069e-08 100 213)" stroke="#C4C4C4" stroke-width="0.1"/>
<line y1="-0.05" x2="202" y2="-0.05" transform="matrix(-2.75685e-08 -1 -1 6.93069e-08 98 213)" stroke="#C4C4C4" stroke-width="0.1"/>
<line y1="-0.05" x2="202" y2="-0.05" transform="matrix(-2.75685e-08 -1 -1 6.93069e-08 97 213)" stroke="#C4C4C4" stroke-width="0.1"/>
<line y1="-0.05" x2="202" y2="-0.05" transform="matrix(-2.75685e-08 -1 -1 6.93069e-08 96 213)" stroke="#C4C4C4" stroke-width="0.1"/>
<line y1="-0.05" x2="202" y2="-0.05" transform="matrix(-2.75685e-08 -1 -1 6.93069e-08 94 213)" stroke="#C4C4C4" stroke-width="0.1"/>
<line y1="-0.05" x2="202" y2="-0.05" transform="matrix(-2.75685e-08 -1 -1 6.93069e-08 93 213)" stroke="#C4C4C4" stroke-width="0.1"/>
<line y1="-0.05" x2="202" y2="-0.05" transform="matrix(-2.75685e-08 -1 -1 6.93069e-08 92 213)" stroke="#C4C4C4" stroke-width="0.1"/>
<line y1="-0.05" x2="202" y2="-0.05" transform="matrix(-2.75685e-08 -1 -1 6.93069e-08 91 213)" stroke="#C4C4C4" stroke-width="0.1"/>
<line y1="-0.05" x2="202" y2="-0.05" transform="matrix(-2.75685e-08 -1 -1 6.93069e-08 89 213)" stroke="#C4C4C4" stroke-width="0.1"/>
<line y1="-0.05" x2="202" y2="-0.05" transform="matrix(-2.75685e-08 -1 -1 6.93069e-08 88 213)" stroke="#C4C4C4" stroke-width="0.1"/>
<line y1="-0.05" x2="202" y2="-0.05" transform="matrix(-2.75685e-08 -1 -1 6.93069e-08 87 213)" stroke="#C4C4C4" stroke-width="0.1"/>
<line y1="-0.05" x2="202" y2="-0.05" transform="matrix(-2.75685e-08 -1 -1 6.93069e-08 86 213)" stroke="#C4C4C4" stroke-width="0.1"/>
<line y1="-0.05" x2="202" y2="-0.05" transform="matrix(-2.75685e-08 -1 -1 6.93069e-08 84 213)" stroke="#C4C4C4" stroke-width="0.1"/>
<line y1="-0.05" x2="202" y2="-0.05" transform="matrix(-2.75685e-08 -1 -1 6.93069e-08 83 213)" stroke="#C4C4C4" stroke-width="0.1"/>
<line y1="-0.05" x2="202" y2="-0.05" transform="matrix(-2.75685e-08 -1 -1 6.93069e-08 82 213)" stroke="#C4C4C4" stroke-width="0.1"/>
<line y1="-0.05" x2="202" y2="-0.05" transform="matrix(-2.75685e-08 -1 -1 6.93069e-08 80 213)" stroke="#C4C4C4" stroke-width="0.1"/>
<line y1="-0.05" x2="202" y2="-0.05" transform="matrix(-2.75685e-08 -1 -1 6.93069e-08 79 213)" stroke="#C4C4C4" stroke-width="0.1"/>
<line y1="-0.05" x2="202" y2="-0.05" transform="matrix(-2.75685e-08 -1 -1 6.93069e-08 78 213)" stroke="#C4C4C4" stroke-width="0.1"/>
<line y1="-0.05" x2="202" y2="-0.05" transform="matrix(-2.75685e-08 -1 -1 6.93069e-08 77 213)" stroke="#C4C4C4" stroke-width="0.1"/>
<line y1="-0.05" x2="202" y2="-0.05" transform="matrix(-2.75685e-08 -1 -1 6.93069e-08 75 213)" stroke="#C4C4C4" stroke-width="0.1"/>
<line y1="-0.05" x2="202" y2="-0.05" transform="matrix(-2.75685e-08 -1 -1 6.93069e-08 74 213)" stroke="#C4C4C4" stroke-width="0.1"/>
<line y1="-0.05" x2="202" y2="-0.05" transform="matrix(-2.75685e-08 -1 -1 6.93069e-08 73 213)" stroke="#C4C4C4" stroke-width="0.1"/>
<line y1="-0.05" x2="202" y2="-0.05" transform="matrix(-2.75685e-08 -1 -1 6.93069e-08 71 213)" stroke="#C4C4C4" stroke-width="0.1"/>
<line y1="-0.05" x2="202" y2="-0.05" transform="matrix(-2.75685e-08 -1 -1 6.93069e-08 70 213)" stroke="#C4C4C4" stroke-width="0.1"/>
<line y1="-0.05" x2="202" y2="-0.05" transform="matrix(-2.75685e-08 -1 -1 6.93069e-08 69 213)" stroke="#C4C4C4" stroke-width="0.1"/>
<line y1="-0.05" x2="202" y2="-0.05" transform="matrix(-2.75685e-08 -1 -1 6.93069e-08 68 213)" stroke="#C4C4C4" stroke-width="0.1"/>
<line y1="-0.05" x2="202" y2="-0.05" transform="matrix(-2.75685e-08 -1 -1 6.93069e-08 66 213)" stroke="#C4C4C4" stroke-width="0.1"/>
<line y1="-0.05" x2="202" y2="-0.05" transform="matrix(-2.75685e-08 -1 -1 6.93069e-08 65 213)" stroke="#C4C4C4" stroke-width="0.1"/>
<line y1="-0.05" x2="202" y2="-0.05" transform="matrix(-2.75685e-08 -1 -1 6.93069e-08 64 213)" stroke="#C4C4C4" stroke-width="0.1"/>
<line y1="-0.05" x2="202" y2="-0.05" transform="matrix(-2.75685e-08 -1 -1 6.93069e-08 63 213)" stroke="#C4C4C4" stroke-width="0.1"/>
<line y1="-0.05" x2="202" y2="-0.05" transform="matrix(-2.75685e-08 -1 -1 6.93069e-08 61 213)" stroke="#C4C4C4" stroke-width="0.1"/>
<line y1="-0.05" x2="202" y2="-0.05" transform="matrix(-2.75685e-08 -1 -1 6.93069e-08 60 213)" stroke="#C4C4C4" stroke-width="0.1"/>
<line y1="-0.05" x2="55.4724" y2="-0.05" transform="matrix(1 1.7842e-07 4.28358e-08 -1 60.6377 164.553)" stroke="#C4C4C4" stroke-width="0.1"/>
<line y1="-0.05" x2="55.4724" y2="-0.05" transform="matrix(1 1.7842e-07 4.28358e-08 -1 60.6377 112.501)" stroke="#C4C4C4" stroke-width="0.1"/>
<line y1="-0.05" x2="55.4724" y2="-0.05" transform="matrix(1 1.7842e-07 4.28358e-08 -1 60.6377 60.4491)" stroke="#C4C4C4" stroke-width="0.1"/>
</svg>
