<svg width="177" height="224" viewBox="0 0 177 224" fill="none" xmlns="http://www.w3.org/2000/svg">
<rect x="5.5" y="5.50012" width="166" height="213" stroke="#C4C4C4" stroke-width="11"/>
<rect x="5" y="5.00012" width="167" height="214" stroke="white" stroke-width="10"/>
<rect x="0.5" y="0.500122" width="176" height="223" stroke="#C4C4C4"/>
<rect x="-0.5" y="0.5" width="156" height="99" transform="matrix(-1 -8.74228e-08 -8.74228e-08 1 166 10)" fill="#D9D9D9" stroke="#1D1D1B"/>
<rect width="155" height="10" transform="matrix(-1 -8.74228e-08 -8.74228e-08 1 166 99)" fill="white"/>
<line y1="-0.5" x2="155" y2="-0.5" transform="matrix(-1 0 0 1 166 13)" stroke="#C4C4C4"/>
<line y1="-0.5" x2="155" y2="-0.5" transform="matrix(-1 0 0 1 166 15)" stroke="#C4C4C4"/>
<line y1="-0.5" x2="155" y2="-0.5" transform="matrix(-1 0 0 1 166 17)" stroke="#C4C4C4"/>
<line y1="-0.5" x2="155" y2="-0.5" transform="matrix(-1 0 0 1 166 19)" stroke="#C4C4C4"/>
<line y1="-0.5" x2="155" y2="-0.5" transform="matrix(-1 0 0 1 166 21)" stroke="#C4C4C4"/>
<line y1="-0.5" x2="155" y2="-0.5" transform="matrix(-1 0 0 1 166 23.0001)" stroke="#C4C4C4"/>
<line y1="-0.5" x2="155" y2="-0.5" transform="matrix(-1 0 0 1 166 25.0001)" stroke="#C4C4C4"/>
<line y1="-0.5" x2="155" y2="-0.5" transform="matrix(-1 0 0 1 166 27.0001)" stroke="#C4C4C4"/>
<line y1="-0.5" x2="155" y2="-0.5" transform="matrix(-1 0 0 1 166 29.0001)" stroke="#C4C4C4"/>
<line y1="-0.5" x2="155" y2="-0.5" transform="matrix(-1 0 0 1 166 31.0001)" stroke="#C4C4C4"/>
<line y1="-0.5" x2="155" y2="-0.5" transform="matrix(-1 0 0 1 166 33.0001)" stroke="#C4C4C4"/>
<line y1="-0.5" x2="155" y2="-0.5" transform="matrix(-1 0 0 1 166 35.0001)" stroke="#C4C4C4"/>
<line y1="-0.5" x2="155" y2="-0.5" transform="matrix(-1 0 0 1 166 37.0001)" stroke="#C4C4C4"/>
<line y1="-0.5" x2="155" y2="-0.5" transform="matrix(-1 0 0 1 166 39.0001)" stroke="#C4C4C4"/>
<line y1="-0.5" x2="155" y2="-0.5" transform="matrix(-1 0 0 1 166 41.0002)" stroke="#C4C4C4"/>
<line y1="-0.5" x2="155" y2="-0.5" transform="matrix(-1 0 0 1 166 43.0002)" stroke="#C4C4C4"/>
<line y1="-0.5" x2="155" y2="-0.5" transform="matrix(-1 0 0 1 166 45.0002)" stroke="#C4C4C4"/>
<line y1="-0.5" x2="155" y2="-0.5" transform="matrix(-1 0 0 1 166 47.0002)" stroke="#C4C4C4"/>
<line y1="-0.5" x2="155" y2="-0.5" transform="matrix(-1 0 0 1 166 49.0002)" stroke="#C4C4C4"/>
<line y1="-0.5" x2="155" y2="-0.5" transform="matrix(-1 0 0 1 166 51.0002)" stroke="#C4C4C4"/>
<line y1="-0.5" x2="155" y2="-0.5" transform="matrix(-1 0 0 1 166 53.0002)" stroke="#C4C4C4"/>
<line y1="-0.5" x2="155" y2="-0.5" transform="matrix(-1 0 0 1 166 55.0002)" stroke="#C4C4C4"/>
<line y1="-0.5" x2="155" y2="-0.5" transform="matrix(-1 0 0 1 166 57.0004)" stroke="#C4C4C4"/>
<line y1="-0.5" x2="155" y2="-0.5" transform="matrix(-1 0 0 1 166 59.0004)" stroke="#C4C4C4"/>
<line y1="-0.5" x2="155" y2="-0.5" transform="matrix(-1 0 0 1 166 61.0004)" stroke="#C4C4C4"/>
<line y1="-0.5" x2="155" y2="-0.5" transform="matrix(-1 0 0 1 166 63.0004)" stroke="#C4C4C4"/>
<line y1="-0.5" x2="155" y2="-0.5" transform="matrix(-1 0 0 1 166 65.0004)" stroke="#C4C4C4"/>
<line y1="-0.5" x2="155" y2="-0.5" transform="matrix(-1 0 0 1 166 67.0004)" stroke="#C4C4C4"/>
<line y1="-0.5" x2="155" y2="-0.5" transform="matrix(-1 0 0 1 166 69.0004)" stroke="#C4C4C4"/>
<line y1="-0.5" x2="155" y2="-0.5" transform="matrix(-1 0 0 1 166 71.0004)" stroke="#C4C4C4"/>
<line y1="-0.5" x2="155" y2="-0.5" transform="matrix(-1 0 0 1 166 73.0005)" stroke="#C4C4C4"/>
<line y1="-0.5" x2="155" y2="-0.5" transform="matrix(-1 0 0 1 166 75.0005)" stroke="#C4C4C4"/>
<line y1="-0.5" x2="155" y2="-0.5" transform="matrix(-1 0 0 1 166 77.0005)" stroke="#C4C4C4"/>
<line y1="-0.5" x2="155" y2="-0.5" transform="matrix(-1 0 0 1 166 79.0005)" stroke="#C4C4C4"/>
<line y1="-0.5" x2="155" y2="-0.5" transform="matrix(-1 0 0 1 166 81.0005)" stroke="#C4C4C4"/>
<line y1="-0.5" x2="155" y2="-0.5" transform="matrix(-1 0 0 1 166 83.0005)" stroke="#C4C4C4"/>
<line y1="-0.5" x2="155" y2="-0.5" transform="matrix(-1 0 0 1 166 85.0005)" stroke="#C4C4C4"/>
<line y1="-0.5" x2="155" y2="-0.5" transform="matrix(-1 0 0 1 166 87.0005)" stroke="#C4C4C4"/>
<line y1="-0.5" x2="155" y2="-0.5" transform="matrix(-1 0 0 1 166 89.0005)" stroke="#C4C4C4"/>
<line y1="-0.5" x2="155" y2="-0.5" transform="matrix(-1 0 0 1 166 91.0006)" stroke="#C4C4C4"/>
<line y1="-0.5" x2="155" y2="-0.5" transform="matrix(-1 0 0 1 166 93.0006)" stroke="#C4C4C4"/>
<line y1="-0.5" x2="155" y2="-0.5" transform="matrix(-1 0 0 1 166 95.0006)" stroke="#C4C4C4"/>
<line y1="-0.5" x2="155" y2="-0.5" transform="matrix(-1 0 0 1 166 97.0006)" stroke="#C4C4C4"/>
<line y1="-0.5" x2="155" y2="-0.5" transform="matrix(-1 0 0 1 166 99.0006)" stroke="#C4C4C4"/>
<line y1="-0.5" x2="87" y2="-0.5" transform="matrix(1.31134e-07 -1 -1 -1.31134e-07 129 98)" stroke="#C4C4C4"/>
<line y1="-0.5" x2="87" y2="-0.5" transform="matrix(1.31134e-07 -1 -1 -1.31134e-07 89 98)" stroke="#C4C4C4"/>
<line y1="-0.5" x2="87" y2="-0.5" transform="matrix(1.31134e-07 -1 -1 -1.31134e-07 49 98)" stroke="#C4C4C4"/>
</svg>
