<svg width="177" height="224" viewBox="0 0 177 224" fill="none" xmlns="http://www.w3.org/2000/svg">
<rect x="5.5" y="5.5" width="166" height="213" stroke="#C4C4C4" stroke-width="11"/>
<rect x="5" y="5" width="167" height="214" stroke="white" stroke-width="10"/>
<rect x="0.5" y="0.5" width="176" height="223" stroke="#C4C4C4"/>
<rect x="-0.5" y="-0.5" width="203" height="62" transform="matrix(4.37114e-08 -1 -1 -4.37114e-08 166 213)" fill="#D9D9D9" stroke="#1D1D1B"/>
<rect width="201.401" height="6.3" transform="matrix(4.37114e-08 -1 -1 -4.37114e-08 110.93 212.701)" fill="white"/>
<line y1="-0.05" x2="202" y2="-0.05" transform="matrix(-3.29731e-08 -1 -1 5.79468e-08 166 213)" stroke="#C4C4C4" stroke-width="0.1"/>
<line y1="-0.05" x2="202" y2="-0.05" transform="matrix(-2.75685e-08 -1 -1 6.93069e-08 165 213)" stroke="#C4C4C4" stroke-width="0.1"/>
<line y1="-0.05" x2="202" y2="-0.05" transform="matrix(-3.29731e-08 -1 -1 5.79468e-08 163 213)" stroke="#C4C4C4" stroke-width="0.1"/>
<line y1="-0.05" x2="202" y2="-0.05" transform="matrix(-2.90425e-08 -1 -1 6.57894e-08 162 213)" stroke="#C4C4C4" stroke-width="0.1"/>
<line y1="-0.05" x2="202" y2="-0.05" transform="matrix(-2.75685e-08 -1 -1 6.93069e-08 161 213)" stroke="#C4C4C4" stroke-width="0.1"/>
<line y1="-0.05" x2="202" y2="-0.05" transform="matrix(-2.75685e-08 -1 -1 6.93069e-08 159 213)" stroke="#C4C4C4" stroke-width="0.1"/>
<line y1="-0.05" x2="202" y2="-0.05" transform="matrix(-2.75685e-08 -1 -1 6.93069e-08 158 213)" stroke="#C4C4C4" stroke-width="0.1"/>
<line y1="-0.05" x2="202" y2="-0.05" transform="matrix(-2.75685e-08 -1 -1 6.93069e-08 157 213)" stroke="#C4C4C4" stroke-width="0.1"/>
<line y1="-0.05" x2="202" y2="-0.05" transform="matrix(-2.75685e-08 -1 -1 6.93069e-08 156 213)" stroke="#C4C4C4" stroke-width="0.1"/>
<line y1="-0.05" x2="202" y2="-0.05" transform="matrix(-2.75685e-08 -1 -1 6.93069e-08 154 213)" stroke="#C4C4C4" stroke-width="0.1"/>
<line y1="-0.05" x2="202" y2="-0.05" transform="matrix(-2.75685e-08 -1 -1 6.93069e-08 153 213)" stroke="#C4C4C4" stroke-width="0.1"/>
<line y1="-0.05" x2="202" y2="-0.05" transform="matrix(-2.75685e-08 -1 -1 6.93069e-08 152 213)" stroke="#C4C4C4" stroke-width="0.1"/>
<line y1="-0.05" x2="202" y2="-0.05" transform="matrix(-2.75685e-08 -1 -1 6.93069e-08 151 213)" stroke="#C4C4C4" stroke-width="0.1"/>
<line y1="-0.05" x2="202" y2="-0.05" transform="matrix(-2.75685e-08 -1 -1 6.93069e-08 149 213)" stroke="#C4C4C4" stroke-width="0.1"/>
<line y1="-0.05" x2="202" y2="-0.05" transform="matrix(-2.75685e-08 -1 -1 6.93069e-08 148 213)" stroke="#C4C4C4" stroke-width="0.1"/>
<line y1="-0.05" x2="202" y2="-0.05" transform="matrix(-2.75685e-08 -1 -1 6.93069e-08 147 213)" stroke="#C4C4C4" stroke-width="0.1"/>
<line y1="-0.05" x2="202" y2="-0.05" transform="matrix(-2.75685e-08 -1 -1 6.93069e-08 145 213)" stroke="#C4C4C4" stroke-width="0.1"/>
<line y1="-0.05" x2="202" y2="-0.05" transform="matrix(-2.75685e-08 -1 -1 6.93069e-08 144 213)" stroke="#C4C4C4" stroke-width="0.1"/>
<line y1="-0.05" x2="202" y2="-0.05" transform="matrix(-2.75685e-08 -1 -1 6.93069e-08 143 213)" stroke="#C4C4C4" stroke-width="0.1"/>
<line y1="-0.05" x2="202" y2="-0.05" transform="matrix(-2.75685e-08 -1 -1 6.93069e-08 142 213)" stroke="#C4C4C4" stroke-width="0.1"/>
<line y1="-0.05" x2="202" y2="-0.05" transform="matrix(-2.75685e-08 -1 -1 6.93069e-08 140 213)" stroke="#C4C4C4" stroke-width="0.1"/>
<line y1="-0.05" x2="202" y2="-0.05" transform="matrix(-2.75685e-08 -1 -1 6.93069e-08 139 213)" stroke="#C4C4C4" stroke-width="0.1"/>
<line y1="-0.05" x2="202" y2="-0.05" transform="matrix(-2.75685e-08 -1 -1 6.93069e-08 138 213)" stroke="#C4C4C4" stroke-width="0.1"/>
<line y1="-0.05" x2="202" y2="-0.05" transform="matrix(-2.75685e-08 -1 -1 6.93069e-08 137 213)" stroke="#C4C4C4" stroke-width="0.1"/>
<line y1="-0.05" x2="202" y2="-0.05" transform="matrix(-2.75685e-08 -1 -1 6.93069e-08 135 213)" stroke="#C4C4C4" stroke-width="0.1"/>
<line y1="-0.05" x2="202" y2="-0.05" transform="matrix(-2.75685e-08 -1 -1 6.93069e-08 134 213)" stroke="#C4C4C4" stroke-width="0.1"/>
<line y1="-0.05" x2="202" y2="-0.05" transform="matrix(-2.75685e-08 -1 -1 6.93069e-08 133 213)" stroke="#C4C4C4" stroke-width="0.1"/>
<line y1="-0.05" x2="202" y2="-0.05" transform="matrix(-2.75685e-08 -1 -1 6.93069e-08 131 213)" stroke="#C4C4C4" stroke-width="0.1"/>
<line y1="-0.05" x2="202" y2="-0.05" transform="matrix(-2.75685e-08 -1 -1 6.93069e-08 130 213)" stroke="#C4C4C4" stroke-width="0.1"/>
<line y1="-0.05" x2="202" y2="-0.05" transform="matrix(-2.75685e-08 -1 -1 6.93069e-08 129 213)" stroke="#C4C4C4" stroke-width="0.1"/>
<line y1="-0.05" x2="202" y2="-0.05" transform="matrix(-2.75685e-08 -1 -1 6.93069e-08 128 213)" stroke="#C4C4C4" stroke-width="0.1"/>
<line y1="-0.05" x2="202" y2="-0.05" transform="matrix(-2.75685e-08 -1 -1 6.93069e-08 126 213)" stroke="#C4C4C4" stroke-width="0.1"/>
<line y1="-0.05" x2="202" y2="-0.05" transform="matrix(-2.75685e-08 -1 -1 6.93069e-08 125 213)" stroke="#C4C4C4" stroke-width="0.1"/>
<line y1="-0.05" x2="202" y2="-0.05" transform="matrix(-2.75685e-08 -1 -1 6.93069e-08 124 213)" stroke="#C4C4C4" stroke-width="0.1"/>
<line y1="-0.05" x2="202" y2="-0.05" transform="matrix(-2.75685e-08 -1 -1 6.93069e-08 122 213)" stroke="#C4C4C4" stroke-width="0.1"/>
<line y1="-0.05" x2="202" y2="-0.05" transform="matrix(-2.75685e-08 -1 -1 6.93069e-08 121 213)" stroke="#C4C4C4" stroke-width="0.1"/>
<line y1="-0.05" x2="202" y2="-0.05" transform="matrix(-2.75685e-08 -1 -1 6.93069e-08 120 213)" stroke="#C4C4C4" stroke-width="0.1"/>
<line y1="-0.05" x2="202" y2="-0.05" transform="matrix(-2.75685e-08 -1 -1 6.93069e-08 119 213)" stroke="#C4C4C4" stroke-width="0.1"/>
<line y1="-0.05" x2="202" y2="-0.05" transform="matrix(-2.75685e-08 -1 -1 6.93069e-08 117 213)" stroke="#C4C4C4" stroke-width="0.1"/>
<line y1="-0.05" x2="202" y2="-0.05" transform="matrix(-2.75685e-08 -1 -1 6.93069e-08 116 213)" stroke="#C4C4C4" stroke-width="0.1"/>
<line y1="-0.05" x2="202" y2="-0.05" transform="matrix(-2.75685e-08 -1 -1 6.93069e-08 115 213)" stroke="#C4C4C4" stroke-width="0.1"/>
<line y1="-0.05" x2="202" y2="-0.05" transform="matrix(-2.75685e-08 -1 -1 6.93069e-08 114 213)" stroke="#C4C4C4" stroke-width="0.1"/>
<line y1="-0.05" x2="202" y2="-0.05" transform="matrix(-2.75685e-08 -1 -1 6.93069e-08 112 213)" stroke="#C4C4C4" stroke-width="0.1"/>
<line y1="-0.05" x2="202" y2="-0.05" transform="matrix(-2.75685e-08 -1 -1 6.93069e-08 111 213)" stroke="#C4C4C4" stroke-width="0.1"/>
<line y1="-0.05" x2="55.4724" y2="-0.05" transform="matrix(1 1.7842e-07 4.28358e-08 -1 111.638 164.553)" stroke="#C4C4C4" stroke-width="0.1"/>
<line y1="-0.05" x2="55.4724" y2="-0.05" transform="matrix(1 1.7842e-07 4.28358e-08 -1 111.638 112.501)" stroke="#C4C4C4" stroke-width="0.1"/>
<line y1="-0.05" x2="55.4724" y2="-0.05" transform="matrix(1 1.7842e-07 4.28358e-08 -1 111.638 60.4491)" stroke="#C4C4C4" stroke-width="0.1"/>
<rect x="10.5" y="213.5" width="203" height="62" transform="rotate(-90 10.5 213.5)" fill="#D9D9D9" stroke="#1D1D1B"/>
<rect x="66.0698" y="212.701" width="201.401" height="6.3" transform="rotate(-90 66.0698 212.701)" fill="white"/>
<line x1="10.95" y1="213" x2="10.95" y2="11" stroke="#C4C4C4" stroke-width="0.1"/>
<line x1="11.95" y1="213" x2="11.95" y2="11" stroke="#C4C4C4" stroke-width="0.1"/>
<line x1="13.95" y1="213" x2="13.95" y2="11" stroke="#C4C4C4" stroke-width="0.1"/>
<line x1="14.95" y1="213" x2="14.95" y2="11" stroke="#C4C4C4" stroke-width="0.1"/>
<line x1="15.95" y1="213" x2="15.95" y2="11" stroke="#C4C4C4" stroke-width="0.1"/>
<line x1="17.95" y1="213" x2="17.95" y2="11" stroke="#C4C4C4" stroke-width="0.1"/>
<line x1="18.95" y1="213" x2="18.95" y2="11" stroke="#C4C4C4" stroke-width="0.1"/>
<line x1="19.95" y1="213" x2="19.95" y2="11" stroke="#C4C4C4" stroke-width="0.1"/>
<line x1="20.95" y1="213" x2="20.95" y2="11" stroke="#C4C4C4" stroke-width="0.1"/>
<line x1="22.95" y1="213" x2="22.95" y2="11" stroke="#C4C4C4" stroke-width="0.1"/>
<line x1="23.95" y1="213" x2="23.95" y2="11" stroke="#C4C4C4" stroke-width="0.1"/>
<line x1="24.95" y1="213" x2="24.95" y2="11" stroke="#C4C4C4" stroke-width="0.1"/>
<line x1="25.95" y1="213" x2="25.95" y2="11" stroke="#C4C4C4" stroke-width="0.1"/>
<line x1="27.95" y1="213" x2="27.95" y2="11" stroke="#C4C4C4" stroke-width="0.1"/>
<line x1="28.95" y1="213" x2="28.95" y2="11" stroke="#C4C4C4" stroke-width="0.1"/>
<line x1="29.95" y1="213" x2="29.95" y2="11" stroke="#C4C4C4" stroke-width="0.1"/>
<line x1="31.95" y1="213" x2="31.95" y2="11" stroke="#C4C4C4" stroke-width="0.1"/>
<line x1="32.95" y1="213" x2="32.95" y2="11" stroke="#C4C4C4" stroke-width="0.1"/>
<line x1="33.95" y1="213" x2="33.95" y2="11" stroke="#C4C4C4" stroke-width="0.1"/>
<line x1="34.95" y1="213" x2="34.95" y2="11" stroke="#C4C4C4" stroke-width="0.1"/>
<line x1="36.95" y1="213" x2="36.95" y2="11" stroke="#C4C4C4" stroke-width="0.1"/>
<line x1="37.95" y1="213" x2="37.95" y2="11" stroke="#C4C4C4" stroke-width="0.1"/>
<line x1="38.95" y1="213" x2="38.95" y2="11" stroke="#C4C4C4" stroke-width="0.1"/>
<line x1="39.95" y1="213" x2="39.95" y2="11" stroke="#C4C4C4" stroke-width="0.1"/>
<line x1="41.95" y1="213" x2="41.95" y2="11" stroke="#C4C4C4" stroke-width="0.1"/>
<line x1="42.95" y1="213" x2="42.95" y2="11" stroke="#C4C4C4" stroke-width="0.1"/>
<line x1="43.95" y1="213" x2="43.95" y2="11" stroke="#C4C4C4" stroke-width="0.1"/>
<line x1="45.95" y1="213" x2="45.95" y2="11" stroke="#C4C4C4" stroke-width="0.1"/>
<line x1="46.95" y1="213" x2="46.95" y2="11" stroke="#C4C4C4" stroke-width="0.1"/>
<line x1="47.95" y1="213" x2="47.95" y2="11" stroke="#C4C4C4" stroke-width="0.1"/>
<line x1="48.95" y1="213" x2="48.95" y2="11" stroke="#C4C4C4" stroke-width="0.1"/>
<line x1="50.95" y1="213" x2="50.95" y2="11" stroke="#C4C4C4" stroke-width="0.1"/>
<line x1="51.95" y1="213" x2="51.95" y2="11" stroke="#C4C4C4" stroke-width="0.1"/>
<line x1="52.95" y1="213" x2="52.95" y2="11" stroke="#C4C4C4" stroke-width="0.1"/>
<line x1="54.95" y1="213" x2="54.95" y2="11" stroke="#C4C4C4" stroke-width="0.1"/>
<line x1="55.95" y1="213" x2="55.95" y2="11" stroke="#C4C4C4" stroke-width="0.1"/>
<line x1="56.95" y1="213" x2="56.95" y2="11" stroke="#C4C4C4" stroke-width="0.1"/>
<line x1="57.95" y1="213" x2="57.95" y2="11" stroke="#C4C4C4" stroke-width="0.1"/>
<line x1="59.95" y1="213" x2="59.95" y2="11" stroke="#C4C4C4" stroke-width="0.1"/>
<line x1="60.95" y1="213" x2="60.95" y2="11" stroke="#C4C4C4" stroke-width="0.1"/>
<line x1="61.95" y1="213" x2="61.95" y2="11" stroke="#C4C4C4" stroke-width="0.1"/>
<line x1="62.95" y1="213" x2="62.95" y2="11" stroke="#C4C4C4" stroke-width="0.1"/>
<line x1="64.95" y1="213" x2="64.95" y2="11" stroke="#C4C4C4" stroke-width="0.1"/>
<line x1="65.95" y1="213" x2="65.95" y2="11" stroke="#C4C4C4" stroke-width="0.1"/>
<line x1="65.3623" y1="164.603" x2="9.88994" y2="164.603" stroke="#C4C4C4" stroke-width="0.1"/>
<line x1="65.3623" y1="112.551" x2="9.88994" y2="112.551" stroke="#C4C4C4" stroke-width="0.1"/>
<line x1="65.3623" y1="60.4991" x2="9.88994" y2="60.4991" stroke="#C4C4C4" stroke-width="0.1"/>
</svg>
