<svg width="38" height="38" viewBox="0 0 38 38" xmlns="http://www.w3.org/2000/svg">
<path d="M30.8217 20.6478C30.2407 19.9368 30.4069 19.6205 30.8217 18.985C30.8292 18.9778 35.6255 12.5561 36.1196 10.3783L36.1226 10.3769C36.3682 9.58326 36.1226 9 34.9352 9H31.0059C30.0056 9 29.5443 9.50056 29.2973 10.0606C29.2973 10.0606 27.2967 14.7006 24.4665 17.7083C23.5531 18.5773 23.1308 18.8559 22.6321 18.8559C22.3865 18.8559 22.0047 18.5773 22.0047 17.7837V10.3769C22.0047 9.42511 21.7247 9 20.8966 9H14.7181C14.0907 9 13.7178 9.44397 13.7178 9.85748C13.7178 10.7599 15.1329 10.9674 15.2797 13.5065V19.0155C15.2797 20.2227 15.0535 20.4446 14.5519 20.4446C13.2162 20.4446 9.9742 15.7858 8.05298 10.4538C7.66514 9.41931 7.28629 9.00145 6.2785 9.00145H2.3477C1.22611 9.00145 1 9.50201 1 10.0621C1 11.0516 2.33572 15.9715 7.21141 22.4715C10.4609 26.9084 15.0371 29.3125 19.2 29.3125C21.7022 29.3125 22.0077 28.7786 22.0077 27.8602C22.0077 23.6206 21.7816 23.2202 23.0349 23.2202C23.616 23.2202 24.6162 23.4988 26.9523 25.6388C29.6222 28.1765 30.061 29.3125 31.5554 29.3125H35.4847C36.6048 29.3125 37.1723 28.7786 36.8459 27.7252C36.0987 25.5097 31.0493 20.9525 30.8217 20.6478Z" />
</svg>
