<svg width="38" height="38" viewBox="0 0 38 38"  xmlns="http://www.w3.org/2000/svg">
<path fill-rule="evenodd" clip-rule="evenodd" d="M33.6187 15.527C32.8595 12.2469 31.0048 9.32051 28.358 7.22653C25.7113 5.13256 22.4293 3.99502 19.0488 4.00002C18.0859 4.03164 17.1259 4.12458 16.1748 4.27826C13.8752 4.72975 11.7146 5.71407 9.868 7.15155C8.02141 8.58903 6.54066 10.4393 5.54563 12.5525C4.55059 14.6657 4.06924 16.9826 4.14052 19.3155C4.21181 21.6484 4.83373 23.9318 5.95595 25.9809C6.00426 26.094 6.02916 26.2157 6.02916 26.3386C6.02916 26.4615 6.00426 26.5832 5.95595 26.6963C5.23744 29.0017 4.59876 31.3469 4 33.6523C4 34.0498 4 34.0498 4.27942 33.9305L11.5045 32.0624C11.5894 32.0135 11.6858 31.9878 11.7839 31.9878C11.882 31.9878 11.9784 32.0135 12.0633 32.0624C14.599 33.3903 17.4642 33.9657 20.3185 33.7203C23.1729 33.475 25.8966 32.419 28.1662 30.678C30.4359 28.937 32.156 26.5839 33.1225 23.8983C34.089 21.2127 34.2612 18.3072 33.6187 15.527ZM21.1246 31.0686C20.5555 31.1524 19.9772 31.1524 19.4081 31.0686C17.0467 31.1077 14.7176 30.5176 12.6621 29.3595C12.5468 29.2932 12.416 29.2583 12.2829 29.2583C12.1497 29.2583 12.0189 29.2932 11.9036 29.3595L7.9119 30.3929C7.63248 30.3929 7.59256 30.3929 7.6724 30.1544C8.03165 28.9222 8.35099 27.6503 8.75017 26.3783C8.82018 26.2431 8.85672 26.0932 8.85672 25.9411C8.85672 25.789 8.82018 25.6391 8.75017 25.5039C7.36959 23.4248 6.65692 20.9767 6.70683 18.4847C6.75674 15.9927 7.56686 13.5748 9.02959 11.5522C10.4152 9.58671 12.3645 8.08359 14.6223 7.23962C16.8801 6.39564 19.3412 6.25014 21.6834 6.82215C24.0426 7.22515 26.2201 8.34166 27.9198 10.02C29.6195 11.6983 30.7591 13.857 31.1837 16.2028C31.5663 17.841 31.6058 19.5401 31.2997 21.1942C30.9936 22.8483 30.3485 24.4218 29.4047 25.8167C28.4609 27.2115 27.2385 28.3977 25.8139 29.3013C24.3893 30.2049 22.793 30.8066 21.1246 31.0686Z" />
<path fill-rule="evenodd" clip-rule="evenodd" d="M22.9608 25.9809C22.4469 26.0826 21.9179 26.0826 21.404 25.9809C18.1495 24.9573 15.3368 22.8707 13.4205 20.0584C12.5756 19.0459 11.987 17.8464 11.7041 16.5605C11.5306 15.8415 11.562 15.0886 11.7947 14.3864C12.0274 13.6843 12.4522 13.0606 13.0213 12.5857C13.2622 12.3831 13.5427 12.2325 13.845 12.1436C14.1474 12.0546 14.465 12.0292 14.7777 12.0689C14.9177 12.1818 15.0389 12.316 15.137 12.4664C15.5361 13.5396 16.0151 14.4936 16.4143 15.527C16.4636 15.6259 16.4892 15.7347 16.4892 15.845C16.4892 15.9554 16.4636 16.0642 16.4143 16.163C16.1441 16.5991 15.837 17.0113 15.4962 17.3952C15.4376 17.4437 15.3904 17.5045 15.358 17.5732C15.3257 17.6419 15.3089 17.7168 15.3089 17.7927C15.3089 17.8686 15.3257 17.9435 15.358 18.0122C15.3904 18.0809 15.4376 18.1417 15.4962 18.1902C16.6365 20.1801 18.425 21.7227 20.5657 22.5625C20.679 22.6528 20.8198 22.702 20.9649 22.702C21.11 22.702 21.2508 22.6528 21.3641 22.5625L22.4818 21.1316C22.6013 21.0381 22.7489 20.9873 22.9009 20.9873C23.0529 20.9873 23.2005 21.0381 23.32 21.1316L25.4756 22.1253L25.9546 22.3638C26.713 22.7612 26.713 22.801 26.6332 23.596C26.5445 24.2753 26.2351 24.9072 25.7523 25.3951C25.2694 25.8831 24.6396 26.2005 23.9587 26.2989C23.6093 26.2546 23.271 26.1469 22.9608 25.9809Z"/>
</svg>
